%TF.GenerationSoftware,KiCad,Pcbnew,8.0.3*%
%TF.CreationDate,2024-08-21T11:04:36-06:00*%
%TF.ProjectId,controller,636f6e74-726f-46c6-9c65-722e6b696361,rev?*%
%TF.SameCoordinates,Original*%
%TF.FileFunction,Legend,Bot*%
%TF.FilePolarity,Positive*%
%FSLAX46Y46*%
G04 Gerber Fmt 4.6, Leading zero omitted, Abs format (unit mm)*
G04 Created by KiCad (PCBNEW 8.0.3) date 2024-08-21 11:04:36*
%MOMM*%
%LPD*%
G01*
G04 APERTURE LIST*
%ADD10C,0.150000*%
%ADD11C,0.120000*%
G04 APERTURE END LIST*
D10*
X112839332Y-69865200D02*
X112696475Y-69912819D01*
X112696475Y-69912819D02*
X112458380Y-69912819D01*
X112458380Y-69912819D02*
X112363142Y-69865200D01*
X112363142Y-69865200D02*
X112315523Y-69817580D01*
X112315523Y-69817580D02*
X112267904Y-69722342D01*
X112267904Y-69722342D02*
X112267904Y-69627104D01*
X112267904Y-69627104D02*
X112315523Y-69531866D01*
X112315523Y-69531866D02*
X112363142Y-69484247D01*
X112363142Y-69484247D02*
X112458380Y-69436628D01*
X112458380Y-69436628D02*
X112648856Y-69389009D01*
X112648856Y-69389009D02*
X112744094Y-69341390D01*
X112744094Y-69341390D02*
X112791713Y-69293771D01*
X112791713Y-69293771D02*
X112839332Y-69198533D01*
X112839332Y-69198533D02*
X112839332Y-69103295D01*
X112839332Y-69103295D02*
X112791713Y-69008057D01*
X112791713Y-69008057D02*
X112744094Y-68960438D01*
X112744094Y-68960438D02*
X112648856Y-68912819D01*
X112648856Y-68912819D02*
X112410761Y-68912819D01*
X112410761Y-68912819D02*
X112267904Y-68960438D01*
X111934570Y-68912819D02*
X111696475Y-69912819D01*
X111696475Y-69912819D02*
X111505999Y-69198533D01*
X111505999Y-69198533D02*
X111315523Y-69912819D01*
X111315523Y-69912819D02*
X111077428Y-68912819D01*
X110744094Y-69008057D02*
X110696475Y-68960438D01*
X110696475Y-68960438D02*
X110601237Y-68912819D01*
X110601237Y-68912819D02*
X110363142Y-68912819D01*
X110363142Y-68912819D02*
X110267904Y-68960438D01*
X110267904Y-68960438D02*
X110220285Y-69008057D01*
X110220285Y-69008057D02*
X110172666Y-69103295D01*
X110172666Y-69103295D02*
X110172666Y-69198533D01*
X110172666Y-69198533D02*
X110220285Y-69341390D01*
X110220285Y-69341390D02*
X110791713Y-69912819D01*
X110791713Y-69912819D02*
X110172666Y-69912819D01*
X136207332Y-69865200D02*
X136064475Y-69912819D01*
X136064475Y-69912819D02*
X135826380Y-69912819D01*
X135826380Y-69912819D02*
X135731142Y-69865200D01*
X135731142Y-69865200D02*
X135683523Y-69817580D01*
X135683523Y-69817580D02*
X135635904Y-69722342D01*
X135635904Y-69722342D02*
X135635904Y-69627104D01*
X135635904Y-69627104D02*
X135683523Y-69531866D01*
X135683523Y-69531866D02*
X135731142Y-69484247D01*
X135731142Y-69484247D02*
X135826380Y-69436628D01*
X135826380Y-69436628D02*
X136016856Y-69389009D01*
X136016856Y-69389009D02*
X136112094Y-69341390D01*
X136112094Y-69341390D02*
X136159713Y-69293771D01*
X136159713Y-69293771D02*
X136207332Y-69198533D01*
X136207332Y-69198533D02*
X136207332Y-69103295D01*
X136207332Y-69103295D02*
X136159713Y-69008057D01*
X136159713Y-69008057D02*
X136112094Y-68960438D01*
X136112094Y-68960438D02*
X136016856Y-68912819D01*
X136016856Y-68912819D02*
X135778761Y-68912819D01*
X135778761Y-68912819D02*
X135635904Y-68960438D01*
X135302570Y-68912819D02*
X135064475Y-69912819D01*
X135064475Y-69912819D02*
X134873999Y-69198533D01*
X134873999Y-69198533D02*
X134683523Y-69912819D01*
X134683523Y-69912819D02*
X134445428Y-68912819D01*
X133540666Y-69912819D02*
X134112094Y-69912819D01*
X133826380Y-69912819D02*
X133826380Y-68912819D01*
X133826380Y-68912819D02*
X133921618Y-69055676D01*
X133921618Y-69055676D02*
X134016856Y-69150914D01*
X134016856Y-69150914D02*
X134112094Y-69198533D01*
D11*
%TO.C,SW2*%
X105306000Y-57558000D02*
X105306000Y-58708000D01*
X105306000Y-60608000D02*
X105306000Y-63708000D01*
X105306000Y-66758000D02*
X105306000Y-65608000D01*
X106906000Y-56008000D02*
X105306000Y-57558000D01*
X106906000Y-68308000D02*
X105306000Y-66758000D01*
X116106000Y-56008000D02*
X106906000Y-56008000D01*
X116106000Y-68308000D02*
X106906000Y-68308000D01*
X117706000Y-57558000D02*
X116106000Y-56008000D01*
X117706000Y-57558000D02*
X117706000Y-58708000D01*
X117706000Y-60608000D02*
X117706000Y-63708000D01*
X117706000Y-66758000D02*
X116106000Y-68308000D01*
X117706000Y-66758000D02*
X117706000Y-65608000D01*
%TO.C,SW1*%
X128674000Y-57558000D02*
X128674000Y-58708000D01*
X128674000Y-60608000D02*
X128674000Y-63708000D01*
X128674000Y-66758000D02*
X128674000Y-65608000D01*
X130274000Y-56008000D02*
X128674000Y-57558000D01*
X130274000Y-68308000D02*
X128674000Y-66758000D01*
X139474000Y-56008000D02*
X130274000Y-56008000D01*
X139474000Y-68308000D02*
X130274000Y-68308000D01*
X141074000Y-57558000D02*
X139474000Y-56008000D01*
X141074000Y-57558000D02*
X141074000Y-58708000D01*
X141074000Y-60608000D02*
X141074000Y-63708000D01*
X141074000Y-66758000D02*
X139474000Y-68308000D01*
X141074000Y-66758000D02*
X141074000Y-65608000D01*
%TD*%
M02*
