%TF.GenerationSoftware,KiCad,Pcbnew,8.0.3*%
%TF.CreationDate,2024-08-21T11:04:36-06:00*%
%TF.ProjectId,controller,636f6e74-726f-46c6-9c65-722e6b696361,rev?*%
%TF.SameCoordinates,Original*%
%TF.FileFunction,Copper,L1,Top*%
%TF.FilePolarity,Positive*%
%FSLAX46Y46*%
G04 Gerber Fmt 4.6, Leading zero omitted, Abs format (unit mm)*
G04 Created by KiCad (PCBNEW 8.0.3) date 2024-08-21 11:04:36*
%MOMM*%
%LPD*%
G01*
G04 APERTURE LIST*
G04 Aperture macros list*
%AMOutline4P*
0 Free polygon, 4 corners , with rotation*
0 The origin of the aperture is its center*
0 number of corners: always 4*
0 $1 to $8 corner X, Y*
0 $9 Rotation angle, in degrees counterclockwise*
0 create outline with 4 corners*
4,1,4,$1,$2,$3,$4,$5,$6,$7,$8,$1,$2,$9*%
G04 Aperture macros list end*
%TA.AperFunction,ComponentPad*%
%ADD10R,1.800000X1.800000*%
%TD*%
%TA.AperFunction,ComponentPad*%
%ADD11C,1.800000*%
%TD*%
%TA.AperFunction,ComponentPad*%
%ADD12R,1.700000X1.700000*%
%TD*%
%TA.AperFunction,ComponentPad*%
%ADD13O,1.700000X1.700000*%
%TD*%
%TA.AperFunction,ComponentPad*%
%ADD14Outline4P,-1.000000X-1.000000X1.000000X-1.000000X1.000000X1.000000X-1.000000X1.000000X270.000000*%
%TD*%
G04 APERTURE END LIST*
D10*
%TO.P,D1,1,K*%
%TO.N,Net-(D1-K)*%
X104394000Y-80010000D03*
D11*
%TO.P,D1,2,A*%
%TO.N,Net-(D1-A)*%
X104394000Y-77470000D03*
%TD*%
D12*
%TO.P,U3,1,3V3*%
%TO.N,Net-(J1-Pin_2)*%
X99515560Y-111504161D03*
D13*
%TO.P,U3,2,EN*%
%TO.N,unconnected-(U3-EN-Pad2)*%
X102055560Y-111504161D03*
%TO.P,U3,3,SVP*%
%TO.N,unconnected-(U3-SVP-Pad3)*%
X104595560Y-111504161D03*
%TO.P,U3,4,SVN*%
%TO.N,unconnected-(U3-SVN-Pad4)*%
X107135560Y-111504161D03*
%TO.P,U3,5,P34*%
%TO.N,Net-(U3-P34)*%
X109675560Y-111504161D03*
%TO.P,U3,6,P35*%
%TO.N,Net-(U3-P35)*%
X112215560Y-111504161D03*
%TO.P,U3,7,P32*%
%TO.N,unconnected-(U3-P32-Pad7)*%
X114755560Y-111504161D03*
%TO.P,U3,8,P33*%
%TO.N,unconnected-(U3-P33-Pad8)*%
X117295560Y-111504161D03*
%TO.P,U3,9,P25*%
%TO.N,unconnected-(U3-P25-Pad9)*%
X119835560Y-111504161D03*
%TO.P,U3,10,P26*%
%TO.N,unconnected-(U3-P26-Pad10)*%
X122375560Y-111504161D03*
%TO.P,U3,11,P27*%
%TO.N,unconnected-(U3-P27-Pad11)*%
X124915560Y-111504161D03*
%TO.P,U3,12,P14*%
%TO.N,unconnected-(U3-P14-Pad12)*%
X127455560Y-111504161D03*
%TO.P,U3,13,P12*%
%TO.N,Net-(U3-P12)*%
X129995560Y-111504161D03*
%TO.P,U3,14,GND*%
%TO.N,Net-(D1-A)*%
X132535560Y-111504161D03*
%TO.P,U3,15,P13*%
%TO.N,Net-(U3-P13)*%
X135075560Y-111504161D03*
%TO.P,U3,16,SD2*%
%TO.N,unconnected-(U3-SD2-Pad16)*%
X137615560Y-111504161D03*
%TO.P,U3,17,SD3*%
%TO.N,unconnected-(U3-SD3-Pad17)*%
X140155560Y-111504161D03*
%TO.P,U3,18,CMD*%
%TO.N,unconnected-(U3-CMD-Pad18)*%
X142695560Y-111504161D03*
%TO.P,U3,19,5V*%
%TO.N,unconnected-(U3-5V-Pad19)*%
X145235560Y-111504161D03*
%TO.P,U3,20,GND*%
%TO.N,Net-(D1-A)*%
X99512840Y-88644161D03*
%TO.P,U3,21,P23*%
%TO.N,Net-(D1-K)*%
X102052840Y-88644161D03*
%TO.P,U3,22,P22*%
%TO.N,Net-(D2-K)*%
X104592840Y-88644161D03*
%TO.P,U3,23,TX*%
%TO.N,unconnected-(U3-TX-Pad23)*%
X107132840Y-88644161D03*
%TO.P,U3,24,RX*%
%TO.N,unconnected-(U3-RX-Pad24)*%
X109672840Y-88644161D03*
%TO.P,U3,25,P21*%
%TO.N,Net-(D3-K)*%
X112212840Y-88644161D03*
%TO.P,U3,26,GND*%
%TO.N,Net-(D1-A)*%
X114752840Y-88644161D03*
%TO.P,U3,27,P19*%
%TO.N,Net-(D4-K)*%
X117292840Y-88644161D03*
%TO.P,U3,28,P18*%
%TO.N,unconnected-(U3-P18-Pad28)*%
X119832840Y-88644161D03*
%TO.P,U3,29,P5*%
%TO.N,unconnected-(U3-P5-Pad29)*%
X122372840Y-88644161D03*
%TO.P,U3,30,P17*%
%TO.N,unconnected-(U3-P17-Pad30)*%
X124912840Y-88644161D03*
%TO.P,U3,31,P16*%
%TO.N,unconnected-(U3-P16-Pad31)*%
X127452840Y-88644161D03*
%TO.P,U3,32,P4*%
%TO.N,unconnected-(U3-P4-Pad32)*%
X129992840Y-88644161D03*
%TO.P,U3,33,P0*%
%TO.N,Net-(U3-P0)*%
X132532840Y-88644161D03*
%TO.P,U3,34,P2*%
%TO.N,Net-(U3-P2)*%
X135072840Y-88644161D03*
%TO.P,U3,35,P15*%
%TO.N,unconnected-(U3-P15-Pad35)*%
X137612840Y-88644161D03*
%TO.P,U3,36,SD1*%
%TO.N,unconnected-(U3-SD1-Pad36)*%
X140152840Y-88644161D03*
%TO.P,U3,37,SD0*%
%TO.N,unconnected-(U3-SD0-Pad37)*%
X142692840Y-88644161D03*
%TO.P,U3,38,CLK*%
%TO.N,unconnected-(U3-CLK-Pad38)*%
X145232840Y-88644161D03*
%TD*%
D14*
%TO.P,J1,1,Pin_1*%
%TO.N,Net-(D1-A)*%
X143793000Y-82356000D03*
%TO.P,J1,2,Pin_2*%
%TO.N,Net-(J1-Pin_2)*%
X143793000Y-77356000D03*
%TD*%
D10*
%TO.P,D4,1,K*%
%TO.N,Net-(D4-K)*%
X119634000Y-80010000D03*
D11*
%TO.P,D4,2,A*%
%TO.N,Net-(D1-A)*%
X119634000Y-77470000D03*
%TD*%
D10*
%TO.P,D2,1,K*%
%TO.N,Net-(D2-K)*%
X109474000Y-80010000D03*
D11*
%TO.P,D2,2,A*%
%TO.N,Net-(D1-A)*%
X109474000Y-77470000D03*
%TD*%
%TO.P,U1,1,VIN*%
%TO.N,Net-(J1-Pin_2)*%
X98780000Y-62630000D03*
%TO.P,U1,2,VOUT*%
%TO.N,Net-(U3-P34)*%
X98780000Y-64630000D03*
%TO.P,U1,3,GND*%
%TO.N,Net-(U1-GND-Pad3)*%
X98780000Y-66630000D03*
%TO.P,U1,4,VIN*%
X92030000Y-73380000D03*
%TO.P,U1,5,VOUT*%
%TO.N,Net-(U3-P35)*%
X90030000Y-73380000D03*
%TO.P,U1,6,GND*%
%TO.N,Net-(D1-A)*%
X88030000Y-73380000D03*
%TD*%
D10*
%TO.P,D3,1,K*%
%TO.N,Net-(D3-K)*%
X114554000Y-80010000D03*
D11*
%TO.P,D3,2,A*%
%TO.N,Net-(D1-A)*%
X114554000Y-77470000D03*
%TD*%
%TO.P,U2,1,VIN*%
%TO.N,Net-(J1-Pin_2)*%
X166413000Y-62699000D03*
%TO.P,U2,2,VOUT*%
%TO.N,Net-(U3-P12)*%
X166413000Y-64699000D03*
%TO.P,U2,3,GND*%
%TO.N,Net-(U2-GND-Pad3)*%
X166413000Y-66699000D03*
%TO.P,U2,4,VIN*%
X159663000Y-73449000D03*
%TO.P,U2,5,VOUT*%
%TO.N,Net-(U3-P13)*%
X157663000Y-73449000D03*
%TO.P,U2,6,GND*%
%TO.N,Net-(D1-A)*%
X155663000Y-73449000D03*
%TD*%
M02*
