%TF.GenerationSoftware,KiCad,Pcbnew,8.0.3*%
%TF.CreationDate,2024-08-21T11:04:33-06:00*%
%TF.ProjectId,controller,636f6e74-726f-46c6-9c65-722e6b696361,rev?*%
%TF.SameCoordinates,Original*%
%TF.FileFunction,Drillmap*%
%TF.FilePolarity,Positive*%
%FSLAX45Y45*%
G04 Gerber Fmt 4.5, Leading zero omitted, Abs format (unit mm)*
G04 Created by KiCad (PCBNEW 8.0.3) date 2024-08-21 11:04:33*
%MOMM*%
%LPD*%
G01*
G04 APERTURE LIST*
%ADD10C,0.200000*%
%ADD11C,0.050000*%
%ADD12C,0.100000*%
%ADD13C,0.102000*%
%ADD14C,0.120000*%
G04 APERTURE END LIST*
D10*
X7696200Y-5080000D02*
X17170400Y-5080000D01*
X17170400Y-11531600D01*
X7696200Y-11531600D01*
X7696200Y-5080000D01*
D11*
X8523000Y-7113000D02*
G75*
G02*
X8283000Y-7113000I-120000J0D01*
G01*
X8283000Y-7113000D02*
G75*
G02*
X8523000Y-7113000I120000J0D01*
G01*
X9723000Y-5863000D02*
G75*
G02*
X9483000Y-5863000I-120000J0D01*
G01*
X9483000Y-5863000D02*
G75*
G02*
X9723000Y-5863000I120000J0D01*
G01*
X15286300Y-7119900D02*
G75*
G02*
X15046300Y-7119900I-120000J0D01*
G01*
X15046300Y-7119900D02*
G75*
G02*
X15286300Y-7119900I120000J0D01*
G01*
X16486300Y-5869900D02*
G75*
G02*
X16246300Y-5869900I-120000J0D01*
G01*
X16246300Y-5869900D02*
G75*
G02*
X16486300Y-5869900I120000J0D01*
G01*
D10*
D12*
X10394400Y-7702000D02*
X10484400Y-7792000D01*
X10484400Y-7702000D02*
X10394400Y-7792000D01*
X10394400Y-7956000D02*
X10484400Y-8046000D01*
X10484400Y-7956000D02*
X10394400Y-8046000D01*
X10902400Y-7702000D02*
X10992400Y-7792000D01*
X10992400Y-7702000D02*
X10902400Y-7792000D01*
X10902400Y-7956000D02*
X10992400Y-8046000D01*
X10992400Y-7956000D02*
X10902400Y-8046000D01*
X11410400Y-7702000D02*
X11500400Y-7792000D01*
X11500400Y-7702000D02*
X11410400Y-7792000D01*
X11410400Y-7956000D02*
X11500400Y-8046000D01*
X11500400Y-7956000D02*
X11410400Y-8046000D01*
X11918400Y-7702000D02*
X12008400Y-7792000D01*
X12008400Y-7702000D02*
X11918400Y-7792000D01*
X11918400Y-7956000D02*
X12008400Y-8046000D01*
X12008400Y-7956000D02*
X11918400Y-8046000D01*
X8853000Y-7338000D02*
G75*
G02*
X8753000Y-7338000I-50000J0D01*
G01*
X8753000Y-7338000D02*
G75*
G02*
X8853000Y-7338000I50000J0D01*
G01*
X9053000Y-7338000D02*
G75*
G02*
X8953000Y-7338000I-50000J0D01*
G01*
X8953000Y-7338000D02*
G75*
G02*
X9053000Y-7338000I50000J0D01*
G01*
X9253000Y-7338000D02*
G75*
G02*
X9153000Y-7338000I-50000J0D01*
G01*
X9153000Y-7338000D02*
G75*
G02*
X9253000Y-7338000I50000J0D01*
G01*
X9928000Y-6263000D02*
G75*
G02*
X9828000Y-6263000I-50000J0D01*
G01*
X9828000Y-6263000D02*
G75*
G02*
X9928000Y-6263000I50000J0D01*
G01*
X9928000Y-6463000D02*
G75*
G02*
X9828000Y-6463000I-50000J0D01*
G01*
X9828000Y-6463000D02*
G75*
G02*
X9928000Y-6463000I50000J0D01*
G01*
X9928000Y-6663000D02*
G75*
G02*
X9828000Y-6663000I-50000J0D01*
G01*
X9828000Y-6663000D02*
G75*
G02*
X9928000Y-6663000I50000J0D01*
G01*
X15616300Y-7344900D02*
G75*
G02*
X15516300Y-7344900I-50000J0D01*
G01*
X15516300Y-7344900D02*
G75*
G02*
X15616300Y-7344900I50000J0D01*
G01*
X15816300Y-7344900D02*
G75*
G02*
X15716300Y-7344900I-50000J0D01*
G01*
X15716300Y-7344900D02*
G75*
G02*
X15816300Y-7344900I50000J0D01*
G01*
X16016300Y-7344900D02*
G75*
G02*
X15916300Y-7344900I-50000J0D01*
G01*
X15916300Y-7344900D02*
G75*
G02*
X16016300Y-7344900I50000J0D01*
G01*
X16691300Y-6269900D02*
G75*
G02*
X16591300Y-6269900I-50000J0D01*
G01*
X16591300Y-6269900D02*
G75*
G02*
X16691300Y-6269900I50000J0D01*
G01*
X16691300Y-6469900D02*
G75*
G02*
X16591300Y-6469900I-50000J0D01*
G01*
X16591300Y-6469900D02*
G75*
G02*
X16691300Y-6469900I50000J0D01*
G01*
X16691300Y-6669900D02*
G75*
G02*
X16591300Y-6669900I-50000J0D01*
G01*
X16591300Y-6669900D02*
G75*
G02*
X16691300Y-6669900I50000J0D01*
G01*
D13*
X9951284Y-8813416D02*
X9951284Y-8915416D01*
X9900284Y-8864416D02*
X10002284Y-8864416D01*
X9951556Y-11099416D02*
X9951556Y-11201416D01*
X9900556Y-11150416D02*
X10002556Y-11150416D01*
X10205284Y-8813416D02*
X10205284Y-8915416D01*
X10154284Y-8864416D02*
X10256284Y-8864416D01*
X10205556Y-11099416D02*
X10205556Y-11201416D01*
X10154556Y-11150416D02*
X10256556Y-11150416D01*
X10459284Y-8813416D02*
X10459284Y-8915416D01*
X10408284Y-8864416D02*
X10510284Y-8864416D01*
X10459556Y-11099416D02*
X10459556Y-11201416D01*
X10408556Y-11150416D02*
X10510556Y-11150416D01*
X10713284Y-8813416D02*
X10713284Y-8915416D01*
X10662284Y-8864416D02*
X10764284Y-8864416D01*
X10713556Y-11099416D02*
X10713556Y-11201416D01*
X10662556Y-11150416D02*
X10764556Y-11150416D01*
X10967284Y-8813416D02*
X10967284Y-8915416D01*
X10916284Y-8864416D02*
X11018284Y-8864416D01*
X10967556Y-11099416D02*
X10967556Y-11201416D01*
X10916556Y-11150416D02*
X11018556Y-11150416D01*
X11221284Y-8813416D02*
X11221284Y-8915416D01*
X11170284Y-8864416D02*
X11272284Y-8864416D01*
X11221556Y-11099416D02*
X11221556Y-11201416D01*
X11170556Y-11150416D02*
X11272556Y-11150416D01*
X11475284Y-8813416D02*
X11475284Y-8915416D01*
X11424284Y-8864416D02*
X11526284Y-8864416D01*
X11475556Y-11099416D02*
X11475556Y-11201416D01*
X11424556Y-11150416D02*
X11526556Y-11150416D01*
X11729284Y-8813416D02*
X11729284Y-8915416D01*
X11678284Y-8864416D02*
X11780284Y-8864416D01*
X11729556Y-11099416D02*
X11729556Y-11201416D01*
X11678556Y-11150416D02*
X11780556Y-11150416D01*
X11983284Y-8813416D02*
X11983284Y-8915416D01*
X11932284Y-8864416D02*
X12034284Y-8864416D01*
X11983556Y-11099416D02*
X11983556Y-11201416D01*
X11932556Y-11150416D02*
X12034556Y-11150416D01*
X12237284Y-8813416D02*
X12237284Y-8915416D01*
X12186284Y-8864416D02*
X12288284Y-8864416D01*
X12237556Y-11099416D02*
X12237556Y-11201416D01*
X12186556Y-11150416D02*
X12288556Y-11150416D01*
X12491284Y-8813416D02*
X12491284Y-8915416D01*
X12440284Y-8864416D02*
X12542284Y-8864416D01*
X12491556Y-11099416D02*
X12491556Y-11201416D01*
X12440556Y-11150416D02*
X12542556Y-11150416D01*
X12745284Y-8813416D02*
X12745284Y-8915416D01*
X12694284Y-8864416D02*
X12796284Y-8864416D01*
X12745556Y-11099416D02*
X12745556Y-11201416D01*
X12694556Y-11150416D02*
X12796556Y-11150416D01*
X12999284Y-8813416D02*
X12999284Y-8915416D01*
X12948284Y-8864416D02*
X13050284Y-8864416D01*
X12999556Y-11099416D02*
X12999556Y-11201416D01*
X12948556Y-11150416D02*
X13050556Y-11150416D01*
X13253284Y-8813416D02*
X13253284Y-8915416D01*
X13202284Y-8864416D02*
X13304284Y-8864416D01*
X13253556Y-11099416D02*
X13253556Y-11201416D01*
X13202556Y-11150416D02*
X13304556Y-11150416D01*
X13507284Y-8813416D02*
X13507284Y-8915416D01*
X13456284Y-8864416D02*
X13558284Y-8864416D01*
X13507556Y-11099416D02*
X13507556Y-11201416D01*
X13456556Y-11150416D02*
X13558556Y-11150416D01*
X13761284Y-8813416D02*
X13761284Y-8915416D01*
X13710284Y-8864416D02*
X13812284Y-8864416D01*
X13761556Y-11099416D02*
X13761556Y-11201416D01*
X13710556Y-11150416D02*
X13812556Y-11150416D01*
X14015284Y-8813416D02*
X14015284Y-8915416D01*
X13964284Y-8864416D02*
X14066284Y-8864416D01*
X14015556Y-11099416D02*
X14015556Y-11201416D01*
X13964556Y-11150416D02*
X14066556Y-11150416D01*
X14269284Y-8813416D02*
X14269284Y-8915416D01*
X14218284Y-8864416D02*
X14320284Y-8864416D01*
X14269556Y-11099416D02*
X14269556Y-11201416D01*
X14218556Y-11150416D02*
X14320556Y-11150416D01*
X14523284Y-8813416D02*
X14523284Y-8915416D01*
X14472284Y-8864416D02*
X14574284Y-8864416D01*
X14523556Y-11099416D02*
X14523556Y-11201416D01*
X14472556Y-11150416D02*
X14574556Y-11150416D01*
D14*
X14421727Y-7778027D02*
X14421727Y-7693173D01*
X14336873Y-7693173D01*
X14336873Y-7778027D01*
X14421727Y-7778027D01*
X14421727Y-8278027D02*
X14421727Y-8193173D01*
X14336873Y-8193173D01*
X14336873Y-8278027D01*
X14421727Y-8278027D01*
D10*
X11150600Y-5865800D02*
X11250600Y-5765800D01*
X11150600Y-5665800D01*
X11050600Y-5765800D01*
X11150600Y-5865800D01*
X11150600Y-6765800D02*
X11250600Y-6665800D01*
X11150600Y-6565800D01*
X11050600Y-6665800D01*
X11150600Y-6765800D01*
X13487400Y-5865800D02*
X13587400Y-5765800D01*
X13487400Y-5665800D01*
X13387400Y-5765800D01*
X13487400Y-5865800D01*
X13487400Y-6765800D02*
X13587400Y-6665800D01*
X13487400Y-6565800D01*
X13387400Y-6665800D01*
X13487400Y-6765800D01*
X7946977Y-11853084D02*
X7946977Y-11653084D01*
X7946977Y-11653084D02*
X7994596Y-11653084D01*
X7994596Y-11653084D02*
X8023167Y-11662608D01*
X8023167Y-11662608D02*
X8042215Y-11681655D01*
X8042215Y-11681655D02*
X8051739Y-11700703D01*
X8051739Y-11700703D02*
X8061262Y-11738798D01*
X8061262Y-11738798D02*
X8061262Y-11767369D01*
X8061262Y-11767369D02*
X8051739Y-11805465D01*
X8051739Y-11805465D02*
X8042215Y-11824512D01*
X8042215Y-11824512D02*
X8023167Y-11843560D01*
X8023167Y-11843560D02*
X7994596Y-11853084D01*
X7994596Y-11853084D02*
X7946977Y-11853084D01*
X8146977Y-11853084D02*
X8146977Y-11719750D01*
X8146977Y-11757846D02*
X8156501Y-11738798D01*
X8156501Y-11738798D02*
X8166024Y-11729274D01*
X8166024Y-11729274D02*
X8185072Y-11719750D01*
X8185072Y-11719750D02*
X8204120Y-11719750D01*
X8270786Y-11853084D02*
X8270786Y-11719750D01*
X8270786Y-11653084D02*
X8261262Y-11662608D01*
X8261262Y-11662608D02*
X8270786Y-11672131D01*
X8270786Y-11672131D02*
X8280310Y-11662608D01*
X8280310Y-11662608D02*
X8270786Y-11653084D01*
X8270786Y-11653084D02*
X8270786Y-11672131D01*
X8394596Y-11853084D02*
X8375548Y-11843560D01*
X8375548Y-11843560D02*
X8366024Y-11824512D01*
X8366024Y-11824512D02*
X8366024Y-11653084D01*
X8499358Y-11853084D02*
X8480310Y-11843560D01*
X8480310Y-11843560D02*
X8470786Y-11824512D01*
X8470786Y-11824512D02*
X8470786Y-11653084D01*
X8727929Y-11853084D02*
X8727929Y-11653084D01*
X8727929Y-11653084D02*
X8794596Y-11795941D01*
X8794596Y-11795941D02*
X8861263Y-11653084D01*
X8861263Y-11653084D02*
X8861263Y-11853084D01*
X9042215Y-11853084D02*
X9042215Y-11748322D01*
X9042215Y-11748322D02*
X9032691Y-11729274D01*
X9032691Y-11729274D02*
X9013644Y-11719750D01*
X9013644Y-11719750D02*
X8975548Y-11719750D01*
X8975548Y-11719750D02*
X8956501Y-11729274D01*
X9042215Y-11843560D02*
X9023167Y-11853084D01*
X9023167Y-11853084D02*
X8975548Y-11853084D01*
X8975548Y-11853084D02*
X8956501Y-11843560D01*
X8956501Y-11843560D02*
X8946977Y-11824512D01*
X8946977Y-11824512D02*
X8946977Y-11805465D01*
X8946977Y-11805465D02*
X8956501Y-11786417D01*
X8956501Y-11786417D02*
X8975548Y-11776893D01*
X8975548Y-11776893D02*
X9023167Y-11776893D01*
X9023167Y-11776893D02*
X9042215Y-11767369D01*
X9137453Y-11719750D02*
X9137453Y-11919750D01*
X9137453Y-11729274D02*
X9156501Y-11719750D01*
X9156501Y-11719750D02*
X9194596Y-11719750D01*
X9194596Y-11719750D02*
X9213644Y-11729274D01*
X9213644Y-11729274D02*
X9223167Y-11738798D01*
X9223167Y-11738798D02*
X9232691Y-11757846D01*
X9232691Y-11757846D02*
X9232691Y-11814988D01*
X9232691Y-11814988D02*
X9223167Y-11834036D01*
X9223167Y-11834036D02*
X9213644Y-11843560D01*
X9213644Y-11843560D02*
X9194596Y-11853084D01*
X9194596Y-11853084D02*
X9156501Y-11853084D01*
X9156501Y-11853084D02*
X9137453Y-11843560D01*
X9318405Y-11834036D02*
X9327929Y-11843560D01*
X9327929Y-11843560D02*
X9318405Y-11853084D01*
X9318405Y-11853084D02*
X9308882Y-11843560D01*
X9308882Y-11843560D02*
X9318405Y-11834036D01*
X9318405Y-11834036D02*
X9318405Y-11853084D01*
X9318405Y-11729274D02*
X9327929Y-11738798D01*
X9327929Y-11738798D02*
X9318405Y-11748322D01*
X9318405Y-11748322D02*
X9308882Y-11738798D01*
X9308882Y-11738798D02*
X9318405Y-11729274D01*
X9318405Y-11729274D02*
X9318405Y-11748322D01*
D12*
X7596200Y-12136600D02*
X7686200Y-12226600D01*
X7686200Y-12136600D02*
X7596200Y-12226600D01*
D10*
X7985072Y-12073084D02*
X8004120Y-12073084D01*
X8004120Y-12073084D02*
X8023167Y-12082608D01*
X8023167Y-12082608D02*
X8032691Y-12092131D01*
X8032691Y-12092131D02*
X8042215Y-12111179D01*
X8042215Y-12111179D02*
X8051739Y-12149274D01*
X8051739Y-12149274D02*
X8051739Y-12196893D01*
X8051739Y-12196893D02*
X8042215Y-12234988D01*
X8042215Y-12234988D02*
X8032691Y-12254036D01*
X8032691Y-12254036D02*
X8023167Y-12263560D01*
X8023167Y-12263560D02*
X8004120Y-12273084D01*
X8004120Y-12273084D02*
X7985072Y-12273084D01*
X7985072Y-12273084D02*
X7966024Y-12263560D01*
X7966024Y-12263560D02*
X7956501Y-12254036D01*
X7956501Y-12254036D02*
X7946977Y-12234988D01*
X7946977Y-12234988D02*
X7937453Y-12196893D01*
X7937453Y-12196893D02*
X7937453Y-12149274D01*
X7937453Y-12149274D02*
X7946977Y-12111179D01*
X7946977Y-12111179D02*
X7956501Y-12092131D01*
X7956501Y-12092131D02*
X7966024Y-12082608D01*
X7966024Y-12082608D02*
X7985072Y-12073084D01*
X8137453Y-12254036D02*
X8146977Y-12263560D01*
X8146977Y-12263560D02*
X8137453Y-12273084D01*
X8137453Y-12273084D02*
X8127929Y-12263560D01*
X8127929Y-12263560D02*
X8137453Y-12254036D01*
X8137453Y-12254036D02*
X8137453Y-12273084D01*
X8242215Y-12273084D02*
X8280310Y-12273084D01*
X8280310Y-12273084D02*
X8299358Y-12263560D01*
X8299358Y-12263560D02*
X8308882Y-12254036D01*
X8308882Y-12254036D02*
X8327929Y-12225465D01*
X8327929Y-12225465D02*
X8337453Y-12187369D01*
X8337453Y-12187369D02*
X8337453Y-12111179D01*
X8337453Y-12111179D02*
X8327929Y-12092131D01*
X8327929Y-12092131D02*
X8318405Y-12082608D01*
X8318405Y-12082608D02*
X8299358Y-12073084D01*
X8299358Y-12073084D02*
X8261262Y-12073084D01*
X8261262Y-12073084D02*
X8242215Y-12082608D01*
X8242215Y-12082608D02*
X8232691Y-12092131D01*
X8232691Y-12092131D02*
X8223167Y-12111179D01*
X8223167Y-12111179D02*
X8223167Y-12158798D01*
X8223167Y-12158798D02*
X8232691Y-12177846D01*
X8232691Y-12177846D02*
X8242215Y-12187369D01*
X8242215Y-12187369D02*
X8261262Y-12196893D01*
X8261262Y-12196893D02*
X8299358Y-12196893D01*
X8299358Y-12196893D02*
X8318405Y-12187369D01*
X8318405Y-12187369D02*
X8327929Y-12177846D01*
X8327929Y-12177846D02*
X8337453Y-12158798D01*
X8461263Y-12073084D02*
X8480310Y-12073084D01*
X8480310Y-12073084D02*
X8499358Y-12082608D01*
X8499358Y-12082608D02*
X8508882Y-12092131D01*
X8508882Y-12092131D02*
X8518405Y-12111179D01*
X8518405Y-12111179D02*
X8527929Y-12149274D01*
X8527929Y-12149274D02*
X8527929Y-12196893D01*
X8527929Y-12196893D02*
X8518405Y-12234988D01*
X8518405Y-12234988D02*
X8508882Y-12254036D01*
X8508882Y-12254036D02*
X8499358Y-12263560D01*
X8499358Y-12263560D02*
X8480310Y-12273084D01*
X8480310Y-12273084D02*
X8461263Y-12273084D01*
X8461263Y-12273084D02*
X8442215Y-12263560D01*
X8442215Y-12263560D02*
X8432691Y-12254036D01*
X8432691Y-12254036D02*
X8423167Y-12234988D01*
X8423167Y-12234988D02*
X8413644Y-12196893D01*
X8413644Y-12196893D02*
X8413644Y-12149274D01*
X8413644Y-12149274D02*
X8423167Y-12111179D01*
X8423167Y-12111179D02*
X8432691Y-12092131D01*
X8432691Y-12092131D02*
X8442215Y-12082608D01*
X8442215Y-12082608D02*
X8461263Y-12073084D01*
X8651739Y-12073084D02*
X8670786Y-12073084D01*
X8670786Y-12073084D02*
X8689834Y-12082608D01*
X8689834Y-12082608D02*
X8699358Y-12092131D01*
X8699358Y-12092131D02*
X8708882Y-12111179D01*
X8708882Y-12111179D02*
X8718405Y-12149274D01*
X8718405Y-12149274D02*
X8718405Y-12196893D01*
X8718405Y-12196893D02*
X8708882Y-12234988D01*
X8708882Y-12234988D02*
X8699358Y-12254036D01*
X8699358Y-12254036D02*
X8689834Y-12263560D01*
X8689834Y-12263560D02*
X8670786Y-12273084D01*
X8670786Y-12273084D02*
X8651739Y-12273084D01*
X8651739Y-12273084D02*
X8632691Y-12263560D01*
X8632691Y-12263560D02*
X8623167Y-12254036D01*
X8623167Y-12254036D02*
X8613644Y-12234988D01*
X8613644Y-12234988D02*
X8604120Y-12196893D01*
X8604120Y-12196893D02*
X8604120Y-12149274D01*
X8604120Y-12149274D02*
X8613644Y-12111179D01*
X8613644Y-12111179D02*
X8623167Y-12092131D01*
X8623167Y-12092131D02*
X8632691Y-12082608D01*
X8632691Y-12082608D02*
X8651739Y-12073084D01*
X8804120Y-12273084D02*
X8804120Y-12139750D01*
X8804120Y-12158798D02*
X8813644Y-12149274D01*
X8813644Y-12149274D02*
X8832691Y-12139750D01*
X8832691Y-12139750D02*
X8861263Y-12139750D01*
X8861263Y-12139750D02*
X8880310Y-12149274D01*
X8880310Y-12149274D02*
X8889834Y-12168322D01*
X8889834Y-12168322D02*
X8889834Y-12273084D01*
X8889834Y-12168322D02*
X8899358Y-12149274D01*
X8899358Y-12149274D02*
X8918405Y-12139750D01*
X8918405Y-12139750D02*
X8946977Y-12139750D01*
X8946977Y-12139750D02*
X8966025Y-12149274D01*
X8966025Y-12149274D02*
X8975548Y-12168322D01*
X8975548Y-12168322D02*
X8975548Y-12273084D01*
X9070786Y-12273084D02*
X9070786Y-12139750D01*
X9070786Y-12158798D02*
X9080310Y-12149274D01*
X9080310Y-12149274D02*
X9099358Y-12139750D01*
X9099358Y-12139750D02*
X9127929Y-12139750D01*
X9127929Y-12139750D02*
X9146977Y-12149274D01*
X9146977Y-12149274D02*
X9156501Y-12168322D01*
X9156501Y-12168322D02*
X9156501Y-12273084D01*
X9156501Y-12168322D02*
X9166025Y-12149274D01*
X9166025Y-12149274D02*
X9185072Y-12139750D01*
X9185072Y-12139750D02*
X9213644Y-12139750D01*
X9213644Y-12139750D02*
X9232691Y-12149274D01*
X9232691Y-12149274D02*
X9242215Y-12168322D01*
X9242215Y-12168322D02*
X9242215Y-12273084D01*
X9632691Y-12063560D02*
X9461263Y-12320703D01*
X9889834Y-12073084D02*
X9908882Y-12073084D01*
X9908882Y-12073084D02*
X9927929Y-12082608D01*
X9927929Y-12082608D02*
X9937453Y-12092131D01*
X9937453Y-12092131D02*
X9946977Y-12111179D01*
X9946977Y-12111179D02*
X9956501Y-12149274D01*
X9956501Y-12149274D02*
X9956501Y-12196893D01*
X9956501Y-12196893D02*
X9946977Y-12234988D01*
X9946977Y-12234988D02*
X9937453Y-12254036D01*
X9937453Y-12254036D02*
X9927929Y-12263560D01*
X9927929Y-12263560D02*
X9908882Y-12273084D01*
X9908882Y-12273084D02*
X9889834Y-12273084D01*
X9889834Y-12273084D02*
X9870787Y-12263560D01*
X9870787Y-12263560D02*
X9861263Y-12254036D01*
X9861263Y-12254036D02*
X9851739Y-12234988D01*
X9851739Y-12234988D02*
X9842215Y-12196893D01*
X9842215Y-12196893D02*
X9842215Y-12149274D01*
X9842215Y-12149274D02*
X9851739Y-12111179D01*
X9851739Y-12111179D02*
X9861263Y-12092131D01*
X9861263Y-12092131D02*
X9870787Y-12082608D01*
X9870787Y-12082608D02*
X9889834Y-12073084D01*
X10042215Y-12254036D02*
X10051739Y-12263560D01*
X10051739Y-12263560D02*
X10042215Y-12273084D01*
X10042215Y-12273084D02*
X10032691Y-12263560D01*
X10032691Y-12263560D02*
X10042215Y-12254036D01*
X10042215Y-12254036D02*
X10042215Y-12273084D01*
X10175548Y-12073084D02*
X10194596Y-12073084D01*
X10194596Y-12073084D02*
X10213644Y-12082608D01*
X10213644Y-12082608D02*
X10223168Y-12092131D01*
X10223168Y-12092131D02*
X10232691Y-12111179D01*
X10232691Y-12111179D02*
X10242215Y-12149274D01*
X10242215Y-12149274D02*
X10242215Y-12196893D01*
X10242215Y-12196893D02*
X10232691Y-12234988D01*
X10232691Y-12234988D02*
X10223168Y-12254036D01*
X10223168Y-12254036D02*
X10213644Y-12263560D01*
X10213644Y-12263560D02*
X10194596Y-12273084D01*
X10194596Y-12273084D02*
X10175548Y-12273084D01*
X10175548Y-12273084D02*
X10156501Y-12263560D01*
X10156501Y-12263560D02*
X10146977Y-12254036D01*
X10146977Y-12254036D02*
X10137453Y-12234988D01*
X10137453Y-12234988D02*
X10127929Y-12196893D01*
X10127929Y-12196893D02*
X10127929Y-12149274D01*
X10127929Y-12149274D02*
X10137453Y-12111179D01*
X10137453Y-12111179D02*
X10146977Y-12092131D01*
X10146977Y-12092131D02*
X10156501Y-12082608D01*
X10156501Y-12082608D02*
X10175548Y-12073084D01*
X10308882Y-12073084D02*
X10432691Y-12073084D01*
X10432691Y-12073084D02*
X10366025Y-12149274D01*
X10366025Y-12149274D02*
X10394596Y-12149274D01*
X10394596Y-12149274D02*
X10413644Y-12158798D01*
X10413644Y-12158798D02*
X10423168Y-12168322D01*
X10423168Y-12168322D02*
X10432691Y-12187369D01*
X10432691Y-12187369D02*
X10432691Y-12234988D01*
X10432691Y-12234988D02*
X10423168Y-12254036D01*
X10423168Y-12254036D02*
X10413644Y-12263560D01*
X10413644Y-12263560D02*
X10394596Y-12273084D01*
X10394596Y-12273084D02*
X10337453Y-12273084D01*
X10337453Y-12273084D02*
X10318406Y-12263560D01*
X10318406Y-12263560D02*
X10308882Y-12254036D01*
X10613644Y-12073084D02*
X10518406Y-12073084D01*
X10518406Y-12073084D02*
X10508882Y-12168322D01*
X10508882Y-12168322D02*
X10518406Y-12158798D01*
X10518406Y-12158798D02*
X10537453Y-12149274D01*
X10537453Y-12149274D02*
X10585072Y-12149274D01*
X10585072Y-12149274D02*
X10604120Y-12158798D01*
X10604120Y-12158798D02*
X10613644Y-12168322D01*
X10613644Y-12168322D02*
X10623168Y-12187369D01*
X10623168Y-12187369D02*
X10623168Y-12234988D01*
X10623168Y-12234988D02*
X10613644Y-12254036D01*
X10613644Y-12254036D02*
X10604120Y-12263560D01*
X10604120Y-12263560D02*
X10585072Y-12273084D01*
X10585072Y-12273084D02*
X10537453Y-12273084D01*
X10537453Y-12273084D02*
X10518406Y-12263560D01*
X10518406Y-12263560D02*
X10508882Y-12254036D01*
X10794596Y-12139750D02*
X10794596Y-12273084D01*
X10746977Y-12063560D02*
X10699358Y-12206417D01*
X10699358Y-12206417D02*
X10823168Y-12206417D01*
X10889834Y-12073084D02*
X10889834Y-12111179D01*
X10966025Y-12073084D02*
X10966025Y-12111179D01*
X11261263Y-12349274D02*
X11251739Y-12339750D01*
X11251739Y-12339750D02*
X11232691Y-12311179D01*
X11232691Y-12311179D02*
X11223168Y-12292131D01*
X11223168Y-12292131D02*
X11213644Y-12263560D01*
X11213644Y-12263560D02*
X11204120Y-12215941D01*
X11204120Y-12215941D02*
X11204120Y-12177846D01*
X11204120Y-12177846D02*
X11213644Y-12130227D01*
X11213644Y-12130227D02*
X11223168Y-12101655D01*
X11223168Y-12101655D02*
X11232691Y-12082608D01*
X11232691Y-12082608D02*
X11251739Y-12054036D01*
X11251739Y-12054036D02*
X11261263Y-12044512D01*
X11366025Y-12158798D02*
X11346977Y-12149274D01*
X11346977Y-12149274D02*
X11337453Y-12139750D01*
X11337453Y-12139750D02*
X11327929Y-12120703D01*
X11327929Y-12120703D02*
X11327929Y-12111179D01*
X11327929Y-12111179D02*
X11337453Y-12092131D01*
X11337453Y-12092131D02*
X11346977Y-12082608D01*
X11346977Y-12082608D02*
X11366025Y-12073084D01*
X11366025Y-12073084D02*
X11404120Y-12073084D01*
X11404120Y-12073084D02*
X11423168Y-12082608D01*
X11423168Y-12082608D02*
X11432691Y-12092131D01*
X11432691Y-12092131D02*
X11442215Y-12111179D01*
X11442215Y-12111179D02*
X11442215Y-12120703D01*
X11442215Y-12120703D02*
X11432691Y-12139750D01*
X11432691Y-12139750D02*
X11423168Y-12149274D01*
X11423168Y-12149274D02*
X11404120Y-12158798D01*
X11404120Y-12158798D02*
X11366025Y-12158798D01*
X11366025Y-12158798D02*
X11346977Y-12168322D01*
X11346977Y-12168322D02*
X11337453Y-12177846D01*
X11337453Y-12177846D02*
X11327929Y-12196893D01*
X11327929Y-12196893D02*
X11327929Y-12234988D01*
X11327929Y-12234988D02*
X11337453Y-12254036D01*
X11337453Y-12254036D02*
X11346977Y-12263560D01*
X11346977Y-12263560D02*
X11366025Y-12273084D01*
X11366025Y-12273084D02*
X11404120Y-12273084D01*
X11404120Y-12273084D02*
X11423168Y-12263560D01*
X11423168Y-12263560D02*
X11432691Y-12254036D01*
X11432691Y-12254036D02*
X11442215Y-12234988D01*
X11442215Y-12234988D02*
X11442215Y-12196893D01*
X11442215Y-12196893D02*
X11432691Y-12177846D01*
X11432691Y-12177846D02*
X11423168Y-12168322D01*
X11423168Y-12168322D02*
X11404120Y-12158798D01*
X11680310Y-12273084D02*
X11680310Y-12073084D01*
X11766025Y-12273084D02*
X11766025Y-12168322D01*
X11766025Y-12168322D02*
X11756501Y-12149274D01*
X11756501Y-12149274D02*
X11737453Y-12139750D01*
X11737453Y-12139750D02*
X11708882Y-12139750D01*
X11708882Y-12139750D02*
X11689834Y-12149274D01*
X11689834Y-12149274D02*
X11680310Y-12158798D01*
X11889834Y-12273084D02*
X11870787Y-12263560D01*
X11870787Y-12263560D02*
X11861263Y-12254036D01*
X11861263Y-12254036D02*
X11851739Y-12234988D01*
X11851739Y-12234988D02*
X11851739Y-12177846D01*
X11851739Y-12177846D02*
X11861263Y-12158798D01*
X11861263Y-12158798D02*
X11870787Y-12149274D01*
X11870787Y-12149274D02*
X11889834Y-12139750D01*
X11889834Y-12139750D02*
X11918406Y-12139750D01*
X11918406Y-12139750D02*
X11937453Y-12149274D01*
X11937453Y-12149274D02*
X11946977Y-12158798D01*
X11946977Y-12158798D02*
X11956501Y-12177846D01*
X11956501Y-12177846D02*
X11956501Y-12234988D01*
X11956501Y-12234988D02*
X11946977Y-12254036D01*
X11946977Y-12254036D02*
X11937453Y-12263560D01*
X11937453Y-12263560D02*
X11918406Y-12273084D01*
X11918406Y-12273084D02*
X11889834Y-12273084D01*
X12070787Y-12273084D02*
X12051739Y-12263560D01*
X12051739Y-12263560D02*
X12042215Y-12244512D01*
X12042215Y-12244512D02*
X12042215Y-12073084D01*
X12223168Y-12263560D02*
X12204120Y-12273084D01*
X12204120Y-12273084D02*
X12166025Y-12273084D01*
X12166025Y-12273084D02*
X12146977Y-12263560D01*
X12146977Y-12263560D02*
X12137453Y-12244512D01*
X12137453Y-12244512D02*
X12137453Y-12168322D01*
X12137453Y-12168322D02*
X12146977Y-12149274D01*
X12146977Y-12149274D02*
X12166025Y-12139750D01*
X12166025Y-12139750D02*
X12204120Y-12139750D01*
X12204120Y-12139750D02*
X12223168Y-12149274D01*
X12223168Y-12149274D02*
X12232691Y-12168322D01*
X12232691Y-12168322D02*
X12232691Y-12187369D01*
X12232691Y-12187369D02*
X12137453Y-12206417D01*
X12308882Y-12263560D02*
X12327930Y-12273084D01*
X12327930Y-12273084D02*
X12366025Y-12273084D01*
X12366025Y-12273084D02*
X12385072Y-12263560D01*
X12385072Y-12263560D02*
X12394596Y-12244512D01*
X12394596Y-12244512D02*
X12394596Y-12234988D01*
X12394596Y-12234988D02*
X12385072Y-12215941D01*
X12385072Y-12215941D02*
X12366025Y-12206417D01*
X12366025Y-12206417D02*
X12337453Y-12206417D01*
X12337453Y-12206417D02*
X12318406Y-12196893D01*
X12318406Y-12196893D02*
X12308882Y-12177846D01*
X12308882Y-12177846D02*
X12308882Y-12168322D01*
X12308882Y-12168322D02*
X12318406Y-12149274D01*
X12318406Y-12149274D02*
X12337453Y-12139750D01*
X12337453Y-12139750D02*
X12366025Y-12139750D01*
X12366025Y-12139750D02*
X12385072Y-12149274D01*
X12461263Y-12349274D02*
X12470787Y-12339750D01*
X12470787Y-12339750D02*
X12489834Y-12311179D01*
X12489834Y-12311179D02*
X12499358Y-12292131D01*
X12499358Y-12292131D02*
X12508882Y-12263560D01*
X12508882Y-12263560D02*
X12518406Y-12215941D01*
X12518406Y-12215941D02*
X12518406Y-12177846D01*
X12518406Y-12177846D02*
X12508882Y-12130227D01*
X12508882Y-12130227D02*
X12499358Y-12101655D01*
X12499358Y-12101655D02*
X12489834Y-12082608D01*
X12489834Y-12082608D02*
X12470787Y-12054036D01*
X12470787Y-12054036D02*
X12461263Y-12044512D01*
D12*
X7686200Y-12445600D02*
G75*
G02*
X7586200Y-12445600I-50000J0D01*
G01*
X7586200Y-12445600D02*
G75*
G02*
X7686200Y-12445600I50000J0D01*
G01*
D10*
X8051739Y-12537084D02*
X7937453Y-12537084D01*
X7994596Y-12537084D02*
X7994596Y-12337084D01*
X7994596Y-12337084D02*
X7975548Y-12365655D01*
X7975548Y-12365655D02*
X7956501Y-12384703D01*
X7956501Y-12384703D02*
X7937453Y-12394227D01*
X8137453Y-12518036D02*
X8146977Y-12527560D01*
X8146977Y-12527560D02*
X8137453Y-12537084D01*
X8137453Y-12537084D02*
X8127929Y-12527560D01*
X8127929Y-12527560D02*
X8137453Y-12518036D01*
X8137453Y-12518036D02*
X8137453Y-12537084D01*
X8270786Y-12337084D02*
X8289834Y-12337084D01*
X8289834Y-12337084D02*
X8308882Y-12346608D01*
X8308882Y-12346608D02*
X8318405Y-12356131D01*
X8318405Y-12356131D02*
X8327929Y-12375179D01*
X8327929Y-12375179D02*
X8337453Y-12413274D01*
X8337453Y-12413274D02*
X8337453Y-12460893D01*
X8337453Y-12460893D02*
X8327929Y-12498988D01*
X8327929Y-12498988D02*
X8318405Y-12518036D01*
X8318405Y-12518036D02*
X8308882Y-12527560D01*
X8308882Y-12527560D02*
X8289834Y-12537084D01*
X8289834Y-12537084D02*
X8270786Y-12537084D01*
X8270786Y-12537084D02*
X8251739Y-12527560D01*
X8251739Y-12527560D02*
X8242215Y-12518036D01*
X8242215Y-12518036D02*
X8232691Y-12498988D01*
X8232691Y-12498988D02*
X8223167Y-12460893D01*
X8223167Y-12460893D02*
X8223167Y-12413274D01*
X8223167Y-12413274D02*
X8232691Y-12375179D01*
X8232691Y-12375179D02*
X8242215Y-12356131D01*
X8242215Y-12356131D02*
X8251739Y-12346608D01*
X8251739Y-12346608D02*
X8270786Y-12337084D01*
X8461263Y-12337084D02*
X8480310Y-12337084D01*
X8480310Y-12337084D02*
X8499358Y-12346608D01*
X8499358Y-12346608D02*
X8508882Y-12356131D01*
X8508882Y-12356131D02*
X8518405Y-12375179D01*
X8518405Y-12375179D02*
X8527929Y-12413274D01*
X8527929Y-12413274D02*
X8527929Y-12460893D01*
X8527929Y-12460893D02*
X8518405Y-12498988D01*
X8518405Y-12498988D02*
X8508882Y-12518036D01*
X8508882Y-12518036D02*
X8499358Y-12527560D01*
X8499358Y-12527560D02*
X8480310Y-12537084D01*
X8480310Y-12537084D02*
X8461263Y-12537084D01*
X8461263Y-12537084D02*
X8442215Y-12527560D01*
X8442215Y-12527560D02*
X8432691Y-12518036D01*
X8432691Y-12518036D02*
X8423167Y-12498988D01*
X8423167Y-12498988D02*
X8413644Y-12460893D01*
X8413644Y-12460893D02*
X8413644Y-12413274D01*
X8413644Y-12413274D02*
X8423167Y-12375179D01*
X8423167Y-12375179D02*
X8432691Y-12356131D01*
X8432691Y-12356131D02*
X8442215Y-12346608D01*
X8442215Y-12346608D02*
X8461263Y-12337084D01*
X8651739Y-12337084D02*
X8670786Y-12337084D01*
X8670786Y-12337084D02*
X8689834Y-12346608D01*
X8689834Y-12346608D02*
X8699358Y-12356131D01*
X8699358Y-12356131D02*
X8708882Y-12375179D01*
X8708882Y-12375179D02*
X8718405Y-12413274D01*
X8718405Y-12413274D02*
X8718405Y-12460893D01*
X8718405Y-12460893D02*
X8708882Y-12498988D01*
X8708882Y-12498988D02*
X8699358Y-12518036D01*
X8699358Y-12518036D02*
X8689834Y-12527560D01*
X8689834Y-12527560D02*
X8670786Y-12537084D01*
X8670786Y-12537084D02*
X8651739Y-12537084D01*
X8651739Y-12537084D02*
X8632691Y-12527560D01*
X8632691Y-12527560D02*
X8623167Y-12518036D01*
X8623167Y-12518036D02*
X8613644Y-12498988D01*
X8613644Y-12498988D02*
X8604120Y-12460893D01*
X8604120Y-12460893D02*
X8604120Y-12413274D01*
X8604120Y-12413274D02*
X8613644Y-12375179D01*
X8613644Y-12375179D02*
X8623167Y-12356131D01*
X8623167Y-12356131D02*
X8632691Y-12346608D01*
X8632691Y-12346608D02*
X8651739Y-12337084D01*
X8804120Y-12537084D02*
X8804120Y-12403750D01*
X8804120Y-12422798D02*
X8813644Y-12413274D01*
X8813644Y-12413274D02*
X8832691Y-12403750D01*
X8832691Y-12403750D02*
X8861263Y-12403750D01*
X8861263Y-12403750D02*
X8880310Y-12413274D01*
X8880310Y-12413274D02*
X8889834Y-12432322D01*
X8889834Y-12432322D02*
X8889834Y-12537084D01*
X8889834Y-12432322D02*
X8899358Y-12413274D01*
X8899358Y-12413274D02*
X8918405Y-12403750D01*
X8918405Y-12403750D02*
X8946977Y-12403750D01*
X8946977Y-12403750D02*
X8966025Y-12413274D01*
X8966025Y-12413274D02*
X8975548Y-12432322D01*
X8975548Y-12432322D02*
X8975548Y-12537084D01*
X9070786Y-12537084D02*
X9070786Y-12403750D01*
X9070786Y-12422798D02*
X9080310Y-12413274D01*
X9080310Y-12413274D02*
X9099358Y-12403750D01*
X9099358Y-12403750D02*
X9127929Y-12403750D01*
X9127929Y-12403750D02*
X9146977Y-12413274D01*
X9146977Y-12413274D02*
X9156501Y-12432322D01*
X9156501Y-12432322D02*
X9156501Y-12537084D01*
X9156501Y-12432322D02*
X9166025Y-12413274D01*
X9166025Y-12413274D02*
X9185072Y-12403750D01*
X9185072Y-12403750D02*
X9213644Y-12403750D01*
X9213644Y-12403750D02*
X9232691Y-12413274D01*
X9232691Y-12413274D02*
X9242215Y-12432322D01*
X9242215Y-12432322D02*
X9242215Y-12537084D01*
X9632691Y-12327560D02*
X9461263Y-12584703D01*
X9889834Y-12337084D02*
X9908882Y-12337084D01*
X9908882Y-12337084D02*
X9927929Y-12346608D01*
X9927929Y-12346608D02*
X9937453Y-12356131D01*
X9937453Y-12356131D02*
X9946977Y-12375179D01*
X9946977Y-12375179D02*
X9956501Y-12413274D01*
X9956501Y-12413274D02*
X9956501Y-12460893D01*
X9956501Y-12460893D02*
X9946977Y-12498988D01*
X9946977Y-12498988D02*
X9937453Y-12518036D01*
X9937453Y-12518036D02*
X9927929Y-12527560D01*
X9927929Y-12527560D02*
X9908882Y-12537084D01*
X9908882Y-12537084D02*
X9889834Y-12537084D01*
X9889834Y-12537084D02*
X9870787Y-12527560D01*
X9870787Y-12527560D02*
X9861263Y-12518036D01*
X9861263Y-12518036D02*
X9851739Y-12498988D01*
X9851739Y-12498988D02*
X9842215Y-12460893D01*
X9842215Y-12460893D02*
X9842215Y-12413274D01*
X9842215Y-12413274D02*
X9851739Y-12375179D01*
X9851739Y-12375179D02*
X9861263Y-12356131D01*
X9861263Y-12356131D02*
X9870787Y-12346608D01*
X9870787Y-12346608D02*
X9889834Y-12337084D01*
X10042215Y-12518036D02*
X10051739Y-12527560D01*
X10051739Y-12527560D02*
X10042215Y-12537084D01*
X10042215Y-12537084D02*
X10032691Y-12527560D01*
X10032691Y-12527560D02*
X10042215Y-12518036D01*
X10042215Y-12518036D02*
X10042215Y-12537084D01*
X10175548Y-12337084D02*
X10194596Y-12337084D01*
X10194596Y-12337084D02*
X10213644Y-12346608D01*
X10213644Y-12346608D02*
X10223168Y-12356131D01*
X10223168Y-12356131D02*
X10232691Y-12375179D01*
X10232691Y-12375179D02*
X10242215Y-12413274D01*
X10242215Y-12413274D02*
X10242215Y-12460893D01*
X10242215Y-12460893D02*
X10232691Y-12498988D01*
X10232691Y-12498988D02*
X10223168Y-12518036D01*
X10223168Y-12518036D02*
X10213644Y-12527560D01*
X10213644Y-12527560D02*
X10194596Y-12537084D01*
X10194596Y-12537084D02*
X10175548Y-12537084D01*
X10175548Y-12537084D02*
X10156501Y-12527560D01*
X10156501Y-12527560D02*
X10146977Y-12518036D01*
X10146977Y-12518036D02*
X10137453Y-12498988D01*
X10137453Y-12498988D02*
X10127929Y-12460893D01*
X10127929Y-12460893D02*
X10127929Y-12413274D01*
X10127929Y-12413274D02*
X10137453Y-12375179D01*
X10137453Y-12375179D02*
X10146977Y-12356131D01*
X10146977Y-12356131D02*
X10156501Y-12346608D01*
X10156501Y-12346608D02*
X10175548Y-12337084D01*
X10308882Y-12337084D02*
X10432691Y-12337084D01*
X10432691Y-12337084D02*
X10366025Y-12413274D01*
X10366025Y-12413274D02*
X10394596Y-12413274D01*
X10394596Y-12413274D02*
X10413644Y-12422798D01*
X10413644Y-12422798D02*
X10423168Y-12432322D01*
X10423168Y-12432322D02*
X10432691Y-12451369D01*
X10432691Y-12451369D02*
X10432691Y-12498988D01*
X10432691Y-12498988D02*
X10423168Y-12518036D01*
X10423168Y-12518036D02*
X10413644Y-12527560D01*
X10413644Y-12527560D02*
X10394596Y-12537084D01*
X10394596Y-12537084D02*
X10337453Y-12537084D01*
X10337453Y-12537084D02*
X10318406Y-12527560D01*
X10318406Y-12527560D02*
X10308882Y-12518036D01*
X10527929Y-12537084D02*
X10566025Y-12537084D01*
X10566025Y-12537084D02*
X10585072Y-12527560D01*
X10585072Y-12527560D02*
X10594596Y-12518036D01*
X10594596Y-12518036D02*
X10613644Y-12489465D01*
X10613644Y-12489465D02*
X10623168Y-12451369D01*
X10623168Y-12451369D02*
X10623168Y-12375179D01*
X10623168Y-12375179D02*
X10613644Y-12356131D01*
X10613644Y-12356131D02*
X10604120Y-12346608D01*
X10604120Y-12346608D02*
X10585072Y-12337084D01*
X10585072Y-12337084D02*
X10546977Y-12337084D01*
X10546977Y-12337084D02*
X10527929Y-12346608D01*
X10527929Y-12346608D02*
X10518406Y-12356131D01*
X10518406Y-12356131D02*
X10508882Y-12375179D01*
X10508882Y-12375179D02*
X10508882Y-12422798D01*
X10508882Y-12422798D02*
X10518406Y-12441846D01*
X10518406Y-12441846D02*
X10527929Y-12451369D01*
X10527929Y-12451369D02*
X10546977Y-12460893D01*
X10546977Y-12460893D02*
X10585072Y-12460893D01*
X10585072Y-12460893D02*
X10604120Y-12451369D01*
X10604120Y-12451369D02*
X10613644Y-12441846D01*
X10613644Y-12441846D02*
X10623168Y-12422798D01*
X10794596Y-12403750D02*
X10794596Y-12537084D01*
X10746977Y-12327560D02*
X10699358Y-12470417D01*
X10699358Y-12470417D02*
X10823168Y-12470417D01*
X10889834Y-12337084D02*
X10889834Y-12375179D01*
X10966025Y-12337084D02*
X10966025Y-12375179D01*
X11261263Y-12613274D02*
X11251739Y-12603750D01*
X11251739Y-12603750D02*
X11232691Y-12575179D01*
X11232691Y-12575179D02*
X11223168Y-12556131D01*
X11223168Y-12556131D02*
X11213644Y-12527560D01*
X11213644Y-12527560D02*
X11204120Y-12479941D01*
X11204120Y-12479941D02*
X11204120Y-12441846D01*
X11204120Y-12441846D02*
X11213644Y-12394227D01*
X11213644Y-12394227D02*
X11223168Y-12365655D01*
X11223168Y-12365655D02*
X11232691Y-12346608D01*
X11232691Y-12346608D02*
X11251739Y-12318036D01*
X11251739Y-12318036D02*
X11261263Y-12308512D01*
X11442215Y-12537084D02*
X11327929Y-12537084D01*
X11385072Y-12537084D02*
X11385072Y-12337084D01*
X11385072Y-12337084D02*
X11366025Y-12365655D01*
X11366025Y-12365655D02*
X11346977Y-12384703D01*
X11346977Y-12384703D02*
X11327929Y-12394227D01*
X11518406Y-12356131D02*
X11527929Y-12346608D01*
X11527929Y-12346608D02*
X11546977Y-12337084D01*
X11546977Y-12337084D02*
X11594596Y-12337084D01*
X11594596Y-12337084D02*
X11613644Y-12346608D01*
X11613644Y-12346608D02*
X11623168Y-12356131D01*
X11623168Y-12356131D02*
X11632691Y-12375179D01*
X11632691Y-12375179D02*
X11632691Y-12394227D01*
X11632691Y-12394227D02*
X11623168Y-12422798D01*
X11623168Y-12422798D02*
X11508882Y-12537084D01*
X11508882Y-12537084D02*
X11632691Y-12537084D01*
X11870787Y-12537084D02*
X11870787Y-12337084D01*
X11956501Y-12537084D02*
X11956501Y-12432322D01*
X11956501Y-12432322D02*
X11946977Y-12413274D01*
X11946977Y-12413274D02*
X11927930Y-12403750D01*
X11927930Y-12403750D02*
X11899358Y-12403750D01*
X11899358Y-12403750D02*
X11880310Y-12413274D01*
X11880310Y-12413274D02*
X11870787Y-12422798D01*
X12080310Y-12537084D02*
X12061263Y-12527560D01*
X12061263Y-12527560D02*
X12051739Y-12518036D01*
X12051739Y-12518036D02*
X12042215Y-12498988D01*
X12042215Y-12498988D02*
X12042215Y-12441846D01*
X12042215Y-12441846D02*
X12051739Y-12422798D01*
X12051739Y-12422798D02*
X12061263Y-12413274D01*
X12061263Y-12413274D02*
X12080310Y-12403750D01*
X12080310Y-12403750D02*
X12108882Y-12403750D01*
X12108882Y-12403750D02*
X12127930Y-12413274D01*
X12127930Y-12413274D02*
X12137453Y-12422798D01*
X12137453Y-12422798D02*
X12146977Y-12441846D01*
X12146977Y-12441846D02*
X12146977Y-12498988D01*
X12146977Y-12498988D02*
X12137453Y-12518036D01*
X12137453Y-12518036D02*
X12127930Y-12527560D01*
X12127930Y-12527560D02*
X12108882Y-12537084D01*
X12108882Y-12537084D02*
X12080310Y-12537084D01*
X12261263Y-12537084D02*
X12242215Y-12527560D01*
X12242215Y-12527560D02*
X12232691Y-12508512D01*
X12232691Y-12508512D02*
X12232691Y-12337084D01*
X12413644Y-12527560D02*
X12394596Y-12537084D01*
X12394596Y-12537084D02*
X12356501Y-12537084D01*
X12356501Y-12537084D02*
X12337453Y-12527560D01*
X12337453Y-12527560D02*
X12327930Y-12508512D01*
X12327930Y-12508512D02*
X12327930Y-12432322D01*
X12327930Y-12432322D02*
X12337453Y-12413274D01*
X12337453Y-12413274D02*
X12356501Y-12403750D01*
X12356501Y-12403750D02*
X12394596Y-12403750D01*
X12394596Y-12403750D02*
X12413644Y-12413274D01*
X12413644Y-12413274D02*
X12423168Y-12432322D01*
X12423168Y-12432322D02*
X12423168Y-12451369D01*
X12423168Y-12451369D02*
X12327930Y-12470417D01*
X12499358Y-12527560D02*
X12518406Y-12537084D01*
X12518406Y-12537084D02*
X12556501Y-12537084D01*
X12556501Y-12537084D02*
X12575549Y-12527560D01*
X12575549Y-12527560D02*
X12585072Y-12508512D01*
X12585072Y-12508512D02*
X12585072Y-12498988D01*
X12585072Y-12498988D02*
X12575549Y-12479941D01*
X12575549Y-12479941D02*
X12556501Y-12470417D01*
X12556501Y-12470417D02*
X12527930Y-12470417D01*
X12527930Y-12470417D02*
X12508882Y-12460893D01*
X12508882Y-12460893D02*
X12499358Y-12441846D01*
X12499358Y-12441846D02*
X12499358Y-12432322D01*
X12499358Y-12432322D02*
X12508882Y-12413274D01*
X12508882Y-12413274D02*
X12527930Y-12403750D01*
X12527930Y-12403750D02*
X12556501Y-12403750D01*
X12556501Y-12403750D02*
X12575549Y-12413274D01*
X12651739Y-12613274D02*
X12661263Y-12603750D01*
X12661263Y-12603750D02*
X12680311Y-12575179D01*
X12680311Y-12575179D02*
X12689834Y-12556131D01*
X12689834Y-12556131D02*
X12699358Y-12527560D01*
X12699358Y-12527560D02*
X12708882Y-12479941D01*
X12708882Y-12479941D02*
X12708882Y-12441846D01*
X12708882Y-12441846D02*
X12699358Y-12394227D01*
X12699358Y-12394227D02*
X12689834Y-12365655D01*
X12689834Y-12365655D02*
X12680311Y-12346608D01*
X12680311Y-12346608D02*
X12661263Y-12318036D01*
X12661263Y-12318036D02*
X12651739Y-12308512D01*
D13*
X7635200Y-12658600D02*
X7635200Y-12760600D01*
X7584200Y-12709600D02*
X7686200Y-12709600D01*
D10*
X8051739Y-12801084D02*
X7937453Y-12801084D01*
X7994596Y-12801084D02*
X7994596Y-12601084D01*
X7994596Y-12601084D02*
X7975548Y-12629655D01*
X7975548Y-12629655D02*
X7956501Y-12648703D01*
X7956501Y-12648703D02*
X7937453Y-12658227D01*
X8137453Y-12782036D02*
X8146977Y-12791560D01*
X8146977Y-12791560D02*
X8137453Y-12801084D01*
X8137453Y-12801084D02*
X8127929Y-12791560D01*
X8127929Y-12791560D02*
X8137453Y-12782036D01*
X8137453Y-12782036D02*
X8137453Y-12801084D01*
X8270786Y-12601084D02*
X8289834Y-12601084D01*
X8289834Y-12601084D02*
X8308882Y-12610608D01*
X8308882Y-12610608D02*
X8318405Y-12620131D01*
X8318405Y-12620131D02*
X8327929Y-12639179D01*
X8327929Y-12639179D02*
X8337453Y-12677274D01*
X8337453Y-12677274D02*
X8337453Y-12724893D01*
X8337453Y-12724893D02*
X8327929Y-12762988D01*
X8327929Y-12762988D02*
X8318405Y-12782036D01*
X8318405Y-12782036D02*
X8308882Y-12791560D01*
X8308882Y-12791560D02*
X8289834Y-12801084D01*
X8289834Y-12801084D02*
X8270786Y-12801084D01*
X8270786Y-12801084D02*
X8251739Y-12791560D01*
X8251739Y-12791560D02*
X8242215Y-12782036D01*
X8242215Y-12782036D02*
X8232691Y-12762988D01*
X8232691Y-12762988D02*
X8223167Y-12724893D01*
X8223167Y-12724893D02*
X8223167Y-12677274D01*
X8223167Y-12677274D02*
X8232691Y-12639179D01*
X8232691Y-12639179D02*
X8242215Y-12620131D01*
X8242215Y-12620131D02*
X8251739Y-12610608D01*
X8251739Y-12610608D02*
X8270786Y-12601084D01*
X8413644Y-12620131D02*
X8423167Y-12610608D01*
X8423167Y-12610608D02*
X8442215Y-12601084D01*
X8442215Y-12601084D02*
X8489834Y-12601084D01*
X8489834Y-12601084D02*
X8508882Y-12610608D01*
X8508882Y-12610608D02*
X8518405Y-12620131D01*
X8518405Y-12620131D02*
X8527929Y-12639179D01*
X8527929Y-12639179D02*
X8527929Y-12658227D01*
X8527929Y-12658227D02*
X8518405Y-12686798D01*
X8518405Y-12686798D02*
X8404120Y-12801084D01*
X8404120Y-12801084D02*
X8527929Y-12801084D01*
X8651739Y-12601084D02*
X8670786Y-12601084D01*
X8670786Y-12601084D02*
X8689834Y-12610608D01*
X8689834Y-12610608D02*
X8699358Y-12620131D01*
X8699358Y-12620131D02*
X8708882Y-12639179D01*
X8708882Y-12639179D02*
X8718405Y-12677274D01*
X8718405Y-12677274D02*
X8718405Y-12724893D01*
X8718405Y-12724893D02*
X8708882Y-12762988D01*
X8708882Y-12762988D02*
X8699358Y-12782036D01*
X8699358Y-12782036D02*
X8689834Y-12791560D01*
X8689834Y-12791560D02*
X8670786Y-12801084D01*
X8670786Y-12801084D02*
X8651739Y-12801084D01*
X8651739Y-12801084D02*
X8632691Y-12791560D01*
X8632691Y-12791560D02*
X8623167Y-12782036D01*
X8623167Y-12782036D02*
X8613644Y-12762988D01*
X8613644Y-12762988D02*
X8604120Y-12724893D01*
X8604120Y-12724893D02*
X8604120Y-12677274D01*
X8604120Y-12677274D02*
X8613644Y-12639179D01*
X8613644Y-12639179D02*
X8623167Y-12620131D01*
X8623167Y-12620131D02*
X8632691Y-12610608D01*
X8632691Y-12610608D02*
X8651739Y-12601084D01*
X8804120Y-12801084D02*
X8804120Y-12667750D01*
X8804120Y-12686798D02*
X8813644Y-12677274D01*
X8813644Y-12677274D02*
X8832691Y-12667750D01*
X8832691Y-12667750D02*
X8861263Y-12667750D01*
X8861263Y-12667750D02*
X8880310Y-12677274D01*
X8880310Y-12677274D02*
X8889834Y-12696322D01*
X8889834Y-12696322D02*
X8889834Y-12801084D01*
X8889834Y-12696322D02*
X8899358Y-12677274D01*
X8899358Y-12677274D02*
X8918405Y-12667750D01*
X8918405Y-12667750D02*
X8946977Y-12667750D01*
X8946977Y-12667750D02*
X8966025Y-12677274D01*
X8966025Y-12677274D02*
X8975548Y-12696322D01*
X8975548Y-12696322D02*
X8975548Y-12801084D01*
X9070786Y-12801084D02*
X9070786Y-12667750D01*
X9070786Y-12686798D02*
X9080310Y-12677274D01*
X9080310Y-12677274D02*
X9099358Y-12667750D01*
X9099358Y-12667750D02*
X9127929Y-12667750D01*
X9127929Y-12667750D02*
X9146977Y-12677274D01*
X9146977Y-12677274D02*
X9156501Y-12696322D01*
X9156501Y-12696322D02*
X9156501Y-12801084D01*
X9156501Y-12696322D02*
X9166025Y-12677274D01*
X9166025Y-12677274D02*
X9185072Y-12667750D01*
X9185072Y-12667750D02*
X9213644Y-12667750D01*
X9213644Y-12667750D02*
X9232691Y-12677274D01*
X9232691Y-12677274D02*
X9242215Y-12696322D01*
X9242215Y-12696322D02*
X9242215Y-12801084D01*
X9632691Y-12591560D02*
X9461263Y-12848703D01*
X9889834Y-12601084D02*
X9908882Y-12601084D01*
X9908882Y-12601084D02*
X9927929Y-12610608D01*
X9927929Y-12610608D02*
X9937453Y-12620131D01*
X9937453Y-12620131D02*
X9946977Y-12639179D01*
X9946977Y-12639179D02*
X9956501Y-12677274D01*
X9956501Y-12677274D02*
X9956501Y-12724893D01*
X9956501Y-12724893D02*
X9946977Y-12762988D01*
X9946977Y-12762988D02*
X9937453Y-12782036D01*
X9937453Y-12782036D02*
X9927929Y-12791560D01*
X9927929Y-12791560D02*
X9908882Y-12801084D01*
X9908882Y-12801084D02*
X9889834Y-12801084D01*
X9889834Y-12801084D02*
X9870787Y-12791560D01*
X9870787Y-12791560D02*
X9861263Y-12782036D01*
X9861263Y-12782036D02*
X9851739Y-12762988D01*
X9851739Y-12762988D02*
X9842215Y-12724893D01*
X9842215Y-12724893D02*
X9842215Y-12677274D01*
X9842215Y-12677274D02*
X9851739Y-12639179D01*
X9851739Y-12639179D02*
X9861263Y-12620131D01*
X9861263Y-12620131D02*
X9870787Y-12610608D01*
X9870787Y-12610608D02*
X9889834Y-12601084D01*
X10042215Y-12782036D02*
X10051739Y-12791560D01*
X10051739Y-12791560D02*
X10042215Y-12801084D01*
X10042215Y-12801084D02*
X10032691Y-12791560D01*
X10032691Y-12791560D02*
X10042215Y-12782036D01*
X10042215Y-12782036D02*
X10042215Y-12801084D01*
X10175548Y-12601084D02*
X10194596Y-12601084D01*
X10194596Y-12601084D02*
X10213644Y-12610608D01*
X10213644Y-12610608D02*
X10223168Y-12620131D01*
X10223168Y-12620131D02*
X10232691Y-12639179D01*
X10232691Y-12639179D02*
X10242215Y-12677274D01*
X10242215Y-12677274D02*
X10242215Y-12724893D01*
X10242215Y-12724893D02*
X10232691Y-12762988D01*
X10232691Y-12762988D02*
X10223168Y-12782036D01*
X10223168Y-12782036D02*
X10213644Y-12791560D01*
X10213644Y-12791560D02*
X10194596Y-12801084D01*
X10194596Y-12801084D02*
X10175548Y-12801084D01*
X10175548Y-12801084D02*
X10156501Y-12791560D01*
X10156501Y-12791560D02*
X10146977Y-12782036D01*
X10146977Y-12782036D02*
X10137453Y-12762988D01*
X10137453Y-12762988D02*
X10127929Y-12724893D01*
X10127929Y-12724893D02*
X10127929Y-12677274D01*
X10127929Y-12677274D02*
X10137453Y-12639179D01*
X10137453Y-12639179D02*
X10146977Y-12620131D01*
X10146977Y-12620131D02*
X10156501Y-12610608D01*
X10156501Y-12610608D02*
X10175548Y-12601084D01*
X10413644Y-12667750D02*
X10413644Y-12801084D01*
X10366025Y-12591560D02*
X10318406Y-12734417D01*
X10318406Y-12734417D02*
X10442215Y-12734417D01*
X10556501Y-12601084D02*
X10575549Y-12601084D01*
X10575549Y-12601084D02*
X10594596Y-12610608D01*
X10594596Y-12610608D02*
X10604120Y-12620131D01*
X10604120Y-12620131D02*
X10613644Y-12639179D01*
X10613644Y-12639179D02*
X10623168Y-12677274D01*
X10623168Y-12677274D02*
X10623168Y-12724893D01*
X10623168Y-12724893D02*
X10613644Y-12762988D01*
X10613644Y-12762988D02*
X10604120Y-12782036D01*
X10604120Y-12782036D02*
X10594596Y-12791560D01*
X10594596Y-12791560D02*
X10575549Y-12801084D01*
X10575549Y-12801084D02*
X10556501Y-12801084D01*
X10556501Y-12801084D02*
X10537453Y-12791560D01*
X10537453Y-12791560D02*
X10527929Y-12782036D01*
X10527929Y-12782036D02*
X10518406Y-12762988D01*
X10518406Y-12762988D02*
X10508882Y-12724893D01*
X10508882Y-12724893D02*
X10508882Y-12677274D01*
X10508882Y-12677274D02*
X10518406Y-12639179D01*
X10518406Y-12639179D02*
X10527929Y-12620131D01*
X10527929Y-12620131D02*
X10537453Y-12610608D01*
X10537453Y-12610608D02*
X10556501Y-12601084D01*
X10699358Y-12620131D02*
X10708882Y-12610608D01*
X10708882Y-12610608D02*
X10727929Y-12601084D01*
X10727929Y-12601084D02*
X10775549Y-12601084D01*
X10775549Y-12601084D02*
X10794596Y-12610608D01*
X10794596Y-12610608D02*
X10804120Y-12620131D01*
X10804120Y-12620131D02*
X10813644Y-12639179D01*
X10813644Y-12639179D02*
X10813644Y-12658227D01*
X10813644Y-12658227D02*
X10804120Y-12686798D01*
X10804120Y-12686798D02*
X10689834Y-12801084D01*
X10689834Y-12801084D02*
X10813644Y-12801084D01*
X10889834Y-12601084D02*
X10889834Y-12639179D01*
X10966025Y-12601084D02*
X10966025Y-12639179D01*
X11261263Y-12877274D02*
X11251739Y-12867750D01*
X11251739Y-12867750D02*
X11232691Y-12839179D01*
X11232691Y-12839179D02*
X11223168Y-12820131D01*
X11223168Y-12820131D02*
X11213644Y-12791560D01*
X11213644Y-12791560D02*
X11204120Y-12743941D01*
X11204120Y-12743941D02*
X11204120Y-12705846D01*
X11204120Y-12705846D02*
X11213644Y-12658227D01*
X11213644Y-12658227D02*
X11223168Y-12629655D01*
X11223168Y-12629655D02*
X11232691Y-12610608D01*
X11232691Y-12610608D02*
X11251739Y-12582036D01*
X11251739Y-12582036D02*
X11261263Y-12572512D01*
X11318406Y-12601084D02*
X11442215Y-12601084D01*
X11442215Y-12601084D02*
X11375548Y-12677274D01*
X11375548Y-12677274D02*
X11404120Y-12677274D01*
X11404120Y-12677274D02*
X11423168Y-12686798D01*
X11423168Y-12686798D02*
X11432691Y-12696322D01*
X11432691Y-12696322D02*
X11442215Y-12715369D01*
X11442215Y-12715369D02*
X11442215Y-12762988D01*
X11442215Y-12762988D02*
X11432691Y-12782036D01*
X11432691Y-12782036D02*
X11423168Y-12791560D01*
X11423168Y-12791560D02*
X11404120Y-12801084D01*
X11404120Y-12801084D02*
X11346977Y-12801084D01*
X11346977Y-12801084D02*
X11327929Y-12791560D01*
X11327929Y-12791560D02*
X11318406Y-12782036D01*
X11556501Y-12686798D02*
X11537453Y-12677274D01*
X11537453Y-12677274D02*
X11527929Y-12667750D01*
X11527929Y-12667750D02*
X11518406Y-12648703D01*
X11518406Y-12648703D02*
X11518406Y-12639179D01*
X11518406Y-12639179D02*
X11527929Y-12620131D01*
X11527929Y-12620131D02*
X11537453Y-12610608D01*
X11537453Y-12610608D02*
X11556501Y-12601084D01*
X11556501Y-12601084D02*
X11594596Y-12601084D01*
X11594596Y-12601084D02*
X11613644Y-12610608D01*
X11613644Y-12610608D02*
X11623168Y-12620131D01*
X11623168Y-12620131D02*
X11632691Y-12639179D01*
X11632691Y-12639179D02*
X11632691Y-12648703D01*
X11632691Y-12648703D02*
X11623168Y-12667750D01*
X11623168Y-12667750D02*
X11613644Y-12677274D01*
X11613644Y-12677274D02*
X11594596Y-12686798D01*
X11594596Y-12686798D02*
X11556501Y-12686798D01*
X11556501Y-12686798D02*
X11537453Y-12696322D01*
X11537453Y-12696322D02*
X11527929Y-12705846D01*
X11527929Y-12705846D02*
X11518406Y-12724893D01*
X11518406Y-12724893D02*
X11518406Y-12762988D01*
X11518406Y-12762988D02*
X11527929Y-12782036D01*
X11527929Y-12782036D02*
X11537453Y-12791560D01*
X11537453Y-12791560D02*
X11556501Y-12801084D01*
X11556501Y-12801084D02*
X11594596Y-12801084D01*
X11594596Y-12801084D02*
X11613644Y-12791560D01*
X11613644Y-12791560D02*
X11623168Y-12782036D01*
X11623168Y-12782036D02*
X11632691Y-12762988D01*
X11632691Y-12762988D02*
X11632691Y-12724893D01*
X11632691Y-12724893D02*
X11623168Y-12705846D01*
X11623168Y-12705846D02*
X11613644Y-12696322D01*
X11613644Y-12696322D02*
X11594596Y-12686798D01*
X11870787Y-12801084D02*
X11870787Y-12601084D01*
X11956501Y-12801084D02*
X11956501Y-12696322D01*
X11956501Y-12696322D02*
X11946977Y-12677274D01*
X11946977Y-12677274D02*
X11927930Y-12667750D01*
X11927930Y-12667750D02*
X11899358Y-12667750D01*
X11899358Y-12667750D02*
X11880310Y-12677274D01*
X11880310Y-12677274D02*
X11870787Y-12686798D01*
X12080310Y-12801084D02*
X12061263Y-12791560D01*
X12061263Y-12791560D02*
X12051739Y-12782036D01*
X12051739Y-12782036D02*
X12042215Y-12762988D01*
X12042215Y-12762988D02*
X12042215Y-12705846D01*
X12042215Y-12705846D02*
X12051739Y-12686798D01*
X12051739Y-12686798D02*
X12061263Y-12677274D01*
X12061263Y-12677274D02*
X12080310Y-12667750D01*
X12080310Y-12667750D02*
X12108882Y-12667750D01*
X12108882Y-12667750D02*
X12127930Y-12677274D01*
X12127930Y-12677274D02*
X12137453Y-12686798D01*
X12137453Y-12686798D02*
X12146977Y-12705846D01*
X12146977Y-12705846D02*
X12146977Y-12762988D01*
X12146977Y-12762988D02*
X12137453Y-12782036D01*
X12137453Y-12782036D02*
X12127930Y-12791560D01*
X12127930Y-12791560D02*
X12108882Y-12801084D01*
X12108882Y-12801084D02*
X12080310Y-12801084D01*
X12261263Y-12801084D02*
X12242215Y-12791560D01*
X12242215Y-12791560D02*
X12232691Y-12772512D01*
X12232691Y-12772512D02*
X12232691Y-12601084D01*
X12413644Y-12791560D02*
X12394596Y-12801084D01*
X12394596Y-12801084D02*
X12356501Y-12801084D01*
X12356501Y-12801084D02*
X12337453Y-12791560D01*
X12337453Y-12791560D02*
X12327930Y-12772512D01*
X12327930Y-12772512D02*
X12327930Y-12696322D01*
X12327930Y-12696322D02*
X12337453Y-12677274D01*
X12337453Y-12677274D02*
X12356501Y-12667750D01*
X12356501Y-12667750D02*
X12394596Y-12667750D01*
X12394596Y-12667750D02*
X12413644Y-12677274D01*
X12413644Y-12677274D02*
X12423168Y-12696322D01*
X12423168Y-12696322D02*
X12423168Y-12715369D01*
X12423168Y-12715369D02*
X12327930Y-12734417D01*
X12499358Y-12791560D02*
X12518406Y-12801084D01*
X12518406Y-12801084D02*
X12556501Y-12801084D01*
X12556501Y-12801084D02*
X12575549Y-12791560D01*
X12575549Y-12791560D02*
X12585072Y-12772512D01*
X12585072Y-12772512D02*
X12585072Y-12762988D01*
X12585072Y-12762988D02*
X12575549Y-12743941D01*
X12575549Y-12743941D02*
X12556501Y-12734417D01*
X12556501Y-12734417D02*
X12527930Y-12734417D01*
X12527930Y-12734417D02*
X12508882Y-12724893D01*
X12508882Y-12724893D02*
X12499358Y-12705846D01*
X12499358Y-12705846D02*
X12499358Y-12696322D01*
X12499358Y-12696322D02*
X12508882Y-12677274D01*
X12508882Y-12677274D02*
X12527930Y-12667750D01*
X12527930Y-12667750D02*
X12556501Y-12667750D01*
X12556501Y-12667750D02*
X12575549Y-12677274D01*
X12651739Y-12877274D02*
X12661263Y-12867750D01*
X12661263Y-12867750D02*
X12680311Y-12839179D01*
X12680311Y-12839179D02*
X12689834Y-12820131D01*
X12689834Y-12820131D02*
X12699358Y-12791560D01*
X12699358Y-12791560D02*
X12708882Y-12743941D01*
X12708882Y-12743941D02*
X12708882Y-12705846D01*
X12708882Y-12705846D02*
X12699358Y-12658227D01*
X12699358Y-12658227D02*
X12689834Y-12629655D01*
X12689834Y-12629655D02*
X12680311Y-12610608D01*
X12680311Y-12610608D02*
X12661263Y-12582036D01*
X12661263Y-12582036D02*
X12651739Y-12572512D01*
D14*
X7668627Y-13016027D02*
X7668627Y-12931173D01*
X7583773Y-12931173D01*
X7583773Y-13016027D01*
X7668627Y-13016027D01*
D10*
X8051739Y-13065084D02*
X7937453Y-13065084D01*
X7994596Y-13065084D02*
X7994596Y-12865084D01*
X7994596Y-12865084D02*
X7975548Y-12893655D01*
X7975548Y-12893655D02*
X7956501Y-12912703D01*
X7956501Y-12912703D02*
X7937453Y-12922227D01*
X8137453Y-13046036D02*
X8146977Y-13055560D01*
X8146977Y-13055560D02*
X8137453Y-13065084D01*
X8137453Y-13065084D02*
X8127929Y-13055560D01*
X8127929Y-13055560D02*
X8137453Y-13046036D01*
X8137453Y-13046036D02*
X8137453Y-13065084D01*
X8223167Y-12884131D02*
X8232691Y-12874608D01*
X8232691Y-12874608D02*
X8251739Y-12865084D01*
X8251739Y-12865084D02*
X8299358Y-12865084D01*
X8299358Y-12865084D02*
X8318405Y-12874608D01*
X8318405Y-12874608D02*
X8327929Y-12884131D01*
X8327929Y-12884131D02*
X8337453Y-12903179D01*
X8337453Y-12903179D02*
X8337453Y-12922227D01*
X8337453Y-12922227D02*
X8327929Y-12950798D01*
X8327929Y-12950798D02*
X8213643Y-13065084D01*
X8213643Y-13065084D02*
X8337453Y-13065084D01*
X8461263Y-12865084D02*
X8480310Y-12865084D01*
X8480310Y-12865084D02*
X8499358Y-12874608D01*
X8499358Y-12874608D02*
X8508882Y-12884131D01*
X8508882Y-12884131D02*
X8518405Y-12903179D01*
X8518405Y-12903179D02*
X8527929Y-12941274D01*
X8527929Y-12941274D02*
X8527929Y-12988893D01*
X8527929Y-12988893D02*
X8518405Y-13026988D01*
X8518405Y-13026988D02*
X8508882Y-13046036D01*
X8508882Y-13046036D02*
X8499358Y-13055560D01*
X8499358Y-13055560D02*
X8480310Y-13065084D01*
X8480310Y-13065084D02*
X8461263Y-13065084D01*
X8461263Y-13065084D02*
X8442215Y-13055560D01*
X8442215Y-13055560D02*
X8432691Y-13046036D01*
X8432691Y-13046036D02*
X8423167Y-13026988D01*
X8423167Y-13026988D02*
X8413644Y-12988893D01*
X8413644Y-12988893D02*
X8413644Y-12941274D01*
X8413644Y-12941274D02*
X8423167Y-12903179D01*
X8423167Y-12903179D02*
X8432691Y-12884131D01*
X8432691Y-12884131D02*
X8442215Y-12874608D01*
X8442215Y-12874608D02*
X8461263Y-12865084D01*
X8651739Y-12865084D02*
X8670786Y-12865084D01*
X8670786Y-12865084D02*
X8689834Y-12874608D01*
X8689834Y-12874608D02*
X8699358Y-12884131D01*
X8699358Y-12884131D02*
X8708882Y-12903179D01*
X8708882Y-12903179D02*
X8718405Y-12941274D01*
X8718405Y-12941274D02*
X8718405Y-12988893D01*
X8718405Y-12988893D02*
X8708882Y-13026988D01*
X8708882Y-13026988D02*
X8699358Y-13046036D01*
X8699358Y-13046036D02*
X8689834Y-13055560D01*
X8689834Y-13055560D02*
X8670786Y-13065084D01*
X8670786Y-13065084D02*
X8651739Y-13065084D01*
X8651739Y-13065084D02*
X8632691Y-13055560D01*
X8632691Y-13055560D02*
X8623167Y-13046036D01*
X8623167Y-13046036D02*
X8613644Y-13026988D01*
X8613644Y-13026988D02*
X8604120Y-12988893D01*
X8604120Y-12988893D02*
X8604120Y-12941274D01*
X8604120Y-12941274D02*
X8613644Y-12903179D01*
X8613644Y-12903179D02*
X8623167Y-12884131D01*
X8623167Y-12884131D02*
X8632691Y-12874608D01*
X8632691Y-12874608D02*
X8651739Y-12865084D01*
X8804120Y-13065084D02*
X8804120Y-12931750D01*
X8804120Y-12950798D02*
X8813644Y-12941274D01*
X8813644Y-12941274D02*
X8832691Y-12931750D01*
X8832691Y-12931750D02*
X8861263Y-12931750D01*
X8861263Y-12931750D02*
X8880310Y-12941274D01*
X8880310Y-12941274D02*
X8889834Y-12960322D01*
X8889834Y-12960322D02*
X8889834Y-13065084D01*
X8889834Y-12960322D02*
X8899358Y-12941274D01*
X8899358Y-12941274D02*
X8918405Y-12931750D01*
X8918405Y-12931750D02*
X8946977Y-12931750D01*
X8946977Y-12931750D02*
X8966025Y-12941274D01*
X8966025Y-12941274D02*
X8975548Y-12960322D01*
X8975548Y-12960322D02*
X8975548Y-13065084D01*
X9070786Y-13065084D02*
X9070786Y-12931750D01*
X9070786Y-12950798D02*
X9080310Y-12941274D01*
X9080310Y-12941274D02*
X9099358Y-12931750D01*
X9099358Y-12931750D02*
X9127929Y-12931750D01*
X9127929Y-12931750D02*
X9146977Y-12941274D01*
X9146977Y-12941274D02*
X9156501Y-12960322D01*
X9156501Y-12960322D02*
X9156501Y-13065084D01*
X9156501Y-12960322D02*
X9166025Y-12941274D01*
X9166025Y-12941274D02*
X9185072Y-12931750D01*
X9185072Y-12931750D02*
X9213644Y-12931750D01*
X9213644Y-12931750D02*
X9232691Y-12941274D01*
X9232691Y-12941274D02*
X9242215Y-12960322D01*
X9242215Y-12960322D02*
X9242215Y-13065084D01*
X9632691Y-12855560D02*
X9461263Y-13112703D01*
X9889834Y-12865084D02*
X9908882Y-12865084D01*
X9908882Y-12865084D02*
X9927929Y-12874608D01*
X9927929Y-12874608D02*
X9937453Y-12884131D01*
X9937453Y-12884131D02*
X9946977Y-12903179D01*
X9946977Y-12903179D02*
X9956501Y-12941274D01*
X9956501Y-12941274D02*
X9956501Y-12988893D01*
X9956501Y-12988893D02*
X9946977Y-13026988D01*
X9946977Y-13026988D02*
X9937453Y-13046036D01*
X9937453Y-13046036D02*
X9927929Y-13055560D01*
X9927929Y-13055560D02*
X9908882Y-13065084D01*
X9908882Y-13065084D02*
X9889834Y-13065084D01*
X9889834Y-13065084D02*
X9870787Y-13055560D01*
X9870787Y-13055560D02*
X9861263Y-13046036D01*
X9861263Y-13046036D02*
X9851739Y-13026988D01*
X9851739Y-13026988D02*
X9842215Y-12988893D01*
X9842215Y-12988893D02*
X9842215Y-12941274D01*
X9842215Y-12941274D02*
X9851739Y-12903179D01*
X9851739Y-12903179D02*
X9861263Y-12884131D01*
X9861263Y-12884131D02*
X9870787Y-12874608D01*
X9870787Y-12874608D02*
X9889834Y-12865084D01*
X10042215Y-13046036D02*
X10051739Y-13055560D01*
X10051739Y-13055560D02*
X10042215Y-13065084D01*
X10042215Y-13065084D02*
X10032691Y-13055560D01*
X10032691Y-13055560D02*
X10042215Y-13046036D01*
X10042215Y-13046036D02*
X10042215Y-13065084D01*
X10175548Y-12865084D02*
X10194596Y-12865084D01*
X10194596Y-12865084D02*
X10213644Y-12874608D01*
X10213644Y-12874608D02*
X10223168Y-12884131D01*
X10223168Y-12884131D02*
X10232691Y-12903179D01*
X10232691Y-12903179D02*
X10242215Y-12941274D01*
X10242215Y-12941274D02*
X10242215Y-12988893D01*
X10242215Y-12988893D02*
X10232691Y-13026988D01*
X10232691Y-13026988D02*
X10223168Y-13046036D01*
X10223168Y-13046036D02*
X10213644Y-13055560D01*
X10213644Y-13055560D02*
X10194596Y-13065084D01*
X10194596Y-13065084D02*
X10175548Y-13065084D01*
X10175548Y-13065084D02*
X10156501Y-13055560D01*
X10156501Y-13055560D02*
X10146977Y-13046036D01*
X10146977Y-13046036D02*
X10137453Y-13026988D01*
X10137453Y-13026988D02*
X10127929Y-12988893D01*
X10127929Y-12988893D02*
X10127929Y-12941274D01*
X10127929Y-12941274D02*
X10137453Y-12903179D01*
X10137453Y-12903179D02*
X10146977Y-12884131D01*
X10146977Y-12884131D02*
X10156501Y-12874608D01*
X10156501Y-12874608D02*
X10175548Y-12865084D01*
X10413644Y-12931750D02*
X10413644Y-13065084D01*
X10366025Y-12855560D02*
X10318406Y-12998417D01*
X10318406Y-12998417D02*
X10442215Y-12998417D01*
X10499358Y-12865084D02*
X10632691Y-12865084D01*
X10632691Y-12865084D02*
X10546977Y-13065084D01*
X10699358Y-12884131D02*
X10708882Y-12874608D01*
X10708882Y-12874608D02*
X10727929Y-12865084D01*
X10727929Y-12865084D02*
X10775549Y-12865084D01*
X10775549Y-12865084D02*
X10794596Y-12874608D01*
X10794596Y-12874608D02*
X10804120Y-12884131D01*
X10804120Y-12884131D02*
X10813644Y-12903179D01*
X10813644Y-12903179D02*
X10813644Y-12922227D01*
X10813644Y-12922227D02*
X10804120Y-12950798D01*
X10804120Y-12950798D02*
X10689834Y-13065084D01*
X10689834Y-13065084D02*
X10813644Y-13065084D01*
X10889834Y-12865084D02*
X10889834Y-12903179D01*
X10966025Y-12865084D02*
X10966025Y-12903179D01*
X11261263Y-13141274D02*
X11251739Y-13131750D01*
X11251739Y-13131750D02*
X11232691Y-13103179D01*
X11232691Y-13103179D02*
X11223168Y-13084131D01*
X11223168Y-13084131D02*
X11213644Y-13055560D01*
X11213644Y-13055560D02*
X11204120Y-13007941D01*
X11204120Y-13007941D02*
X11204120Y-12969846D01*
X11204120Y-12969846D02*
X11213644Y-12922227D01*
X11213644Y-12922227D02*
X11223168Y-12893655D01*
X11223168Y-12893655D02*
X11232691Y-12874608D01*
X11232691Y-12874608D02*
X11251739Y-12846036D01*
X11251739Y-12846036D02*
X11261263Y-12836512D01*
X11327929Y-12884131D02*
X11337453Y-12874608D01*
X11337453Y-12874608D02*
X11356501Y-12865084D01*
X11356501Y-12865084D02*
X11404120Y-12865084D01*
X11404120Y-12865084D02*
X11423168Y-12874608D01*
X11423168Y-12874608D02*
X11432691Y-12884131D01*
X11432691Y-12884131D02*
X11442215Y-12903179D01*
X11442215Y-12903179D02*
X11442215Y-12922227D01*
X11442215Y-12922227D02*
X11432691Y-12950798D01*
X11432691Y-12950798D02*
X11318406Y-13065084D01*
X11318406Y-13065084D02*
X11442215Y-13065084D01*
X11680310Y-13065084D02*
X11680310Y-12865084D01*
X11766025Y-13065084D02*
X11766025Y-12960322D01*
X11766025Y-12960322D02*
X11756501Y-12941274D01*
X11756501Y-12941274D02*
X11737453Y-12931750D01*
X11737453Y-12931750D02*
X11708882Y-12931750D01*
X11708882Y-12931750D02*
X11689834Y-12941274D01*
X11689834Y-12941274D02*
X11680310Y-12950798D01*
X11889834Y-13065084D02*
X11870787Y-13055560D01*
X11870787Y-13055560D02*
X11861263Y-13046036D01*
X11861263Y-13046036D02*
X11851739Y-13026988D01*
X11851739Y-13026988D02*
X11851739Y-12969846D01*
X11851739Y-12969846D02*
X11861263Y-12950798D01*
X11861263Y-12950798D02*
X11870787Y-12941274D01*
X11870787Y-12941274D02*
X11889834Y-12931750D01*
X11889834Y-12931750D02*
X11918406Y-12931750D01*
X11918406Y-12931750D02*
X11937453Y-12941274D01*
X11937453Y-12941274D02*
X11946977Y-12950798D01*
X11946977Y-12950798D02*
X11956501Y-12969846D01*
X11956501Y-12969846D02*
X11956501Y-13026988D01*
X11956501Y-13026988D02*
X11946977Y-13046036D01*
X11946977Y-13046036D02*
X11937453Y-13055560D01*
X11937453Y-13055560D02*
X11918406Y-13065084D01*
X11918406Y-13065084D02*
X11889834Y-13065084D01*
X12070787Y-13065084D02*
X12051739Y-13055560D01*
X12051739Y-13055560D02*
X12042215Y-13036512D01*
X12042215Y-13036512D02*
X12042215Y-12865084D01*
X12223168Y-13055560D02*
X12204120Y-13065084D01*
X12204120Y-13065084D02*
X12166025Y-13065084D01*
X12166025Y-13065084D02*
X12146977Y-13055560D01*
X12146977Y-13055560D02*
X12137453Y-13036512D01*
X12137453Y-13036512D02*
X12137453Y-12960322D01*
X12137453Y-12960322D02*
X12146977Y-12941274D01*
X12146977Y-12941274D02*
X12166025Y-12931750D01*
X12166025Y-12931750D02*
X12204120Y-12931750D01*
X12204120Y-12931750D02*
X12223168Y-12941274D01*
X12223168Y-12941274D02*
X12232691Y-12960322D01*
X12232691Y-12960322D02*
X12232691Y-12979369D01*
X12232691Y-12979369D02*
X12137453Y-12998417D01*
X12308882Y-13055560D02*
X12327930Y-13065084D01*
X12327930Y-13065084D02*
X12366025Y-13065084D01*
X12366025Y-13065084D02*
X12385072Y-13055560D01*
X12385072Y-13055560D02*
X12394596Y-13036512D01*
X12394596Y-13036512D02*
X12394596Y-13026988D01*
X12394596Y-13026988D02*
X12385072Y-13007941D01*
X12385072Y-13007941D02*
X12366025Y-12998417D01*
X12366025Y-12998417D02*
X12337453Y-12998417D01*
X12337453Y-12998417D02*
X12318406Y-12988893D01*
X12318406Y-12988893D02*
X12308882Y-12969846D01*
X12308882Y-12969846D02*
X12308882Y-12960322D01*
X12308882Y-12960322D02*
X12318406Y-12941274D01*
X12318406Y-12941274D02*
X12337453Y-12931750D01*
X12337453Y-12931750D02*
X12366025Y-12931750D01*
X12366025Y-12931750D02*
X12385072Y-12941274D01*
X12461263Y-13141274D02*
X12470787Y-13131750D01*
X12470787Y-13131750D02*
X12489834Y-13103179D01*
X12489834Y-13103179D02*
X12499358Y-13084131D01*
X12499358Y-13084131D02*
X12508882Y-13055560D01*
X12508882Y-13055560D02*
X12518406Y-13007941D01*
X12518406Y-13007941D02*
X12518406Y-12969846D01*
X12518406Y-12969846D02*
X12508882Y-12922227D01*
X12508882Y-12922227D02*
X12499358Y-12893655D01*
X12499358Y-12893655D02*
X12489834Y-12874608D01*
X12489834Y-12874608D02*
X12470787Y-12846036D01*
X12470787Y-12846036D02*
X12461263Y-12836512D01*
X7586200Y-13337600D02*
X7686200Y-13237600D01*
X7586200Y-13137600D01*
X7486200Y-13237600D01*
X7586200Y-13337600D01*
X7937453Y-13148131D02*
X7946977Y-13138608D01*
X7946977Y-13138608D02*
X7966024Y-13129084D01*
X7966024Y-13129084D02*
X8013643Y-13129084D01*
X8013643Y-13129084D02*
X8032691Y-13138608D01*
X8032691Y-13138608D02*
X8042215Y-13148131D01*
X8042215Y-13148131D02*
X8051739Y-13167179D01*
X8051739Y-13167179D02*
X8051739Y-13186227D01*
X8051739Y-13186227D02*
X8042215Y-13214798D01*
X8042215Y-13214798D02*
X7927929Y-13329084D01*
X7927929Y-13329084D02*
X8051739Y-13329084D01*
X8137453Y-13310036D02*
X8146977Y-13319560D01*
X8146977Y-13319560D02*
X8137453Y-13329084D01*
X8137453Y-13329084D02*
X8127929Y-13319560D01*
X8127929Y-13319560D02*
X8137453Y-13310036D01*
X8137453Y-13310036D02*
X8137453Y-13329084D01*
X8270786Y-13129084D02*
X8289834Y-13129084D01*
X8289834Y-13129084D02*
X8308882Y-13138608D01*
X8308882Y-13138608D02*
X8318405Y-13148131D01*
X8318405Y-13148131D02*
X8327929Y-13167179D01*
X8327929Y-13167179D02*
X8337453Y-13205274D01*
X8337453Y-13205274D02*
X8337453Y-13252893D01*
X8337453Y-13252893D02*
X8327929Y-13290988D01*
X8327929Y-13290988D02*
X8318405Y-13310036D01*
X8318405Y-13310036D02*
X8308882Y-13319560D01*
X8308882Y-13319560D02*
X8289834Y-13329084D01*
X8289834Y-13329084D02*
X8270786Y-13329084D01*
X8270786Y-13329084D02*
X8251739Y-13319560D01*
X8251739Y-13319560D02*
X8242215Y-13310036D01*
X8242215Y-13310036D02*
X8232691Y-13290988D01*
X8232691Y-13290988D02*
X8223167Y-13252893D01*
X8223167Y-13252893D02*
X8223167Y-13205274D01*
X8223167Y-13205274D02*
X8232691Y-13167179D01*
X8232691Y-13167179D02*
X8242215Y-13148131D01*
X8242215Y-13148131D02*
X8251739Y-13138608D01*
X8251739Y-13138608D02*
X8270786Y-13129084D01*
X8461263Y-13129084D02*
X8480310Y-13129084D01*
X8480310Y-13129084D02*
X8499358Y-13138608D01*
X8499358Y-13138608D02*
X8508882Y-13148131D01*
X8508882Y-13148131D02*
X8518405Y-13167179D01*
X8518405Y-13167179D02*
X8527929Y-13205274D01*
X8527929Y-13205274D02*
X8527929Y-13252893D01*
X8527929Y-13252893D02*
X8518405Y-13290988D01*
X8518405Y-13290988D02*
X8508882Y-13310036D01*
X8508882Y-13310036D02*
X8499358Y-13319560D01*
X8499358Y-13319560D02*
X8480310Y-13329084D01*
X8480310Y-13329084D02*
X8461263Y-13329084D01*
X8461263Y-13329084D02*
X8442215Y-13319560D01*
X8442215Y-13319560D02*
X8432691Y-13310036D01*
X8432691Y-13310036D02*
X8423167Y-13290988D01*
X8423167Y-13290988D02*
X8413644Y-13252893D01*
X8413644Y-13252893D02*
X8413644Y-13205274D01*
X8413644Y-13205274D02*
X8423167Y-13167179D01*
X8423167Y-13167179D02*
X8432691Y-13148131D01*
X8432691Y-13148131D02*
X8442215Y-13138608D01*
X8442215Y-13138608D02*
X8461263Y-13129084D01*
X8651739Y-13129084D02*
X8670786Y-13129084D01*
X8670786Y-13129084D02*
X8689834Y-13138608D01*
X8689834Y-13138608D02*
X8699358Y-13148131D01*
X8699358Y-13148131D02*
X8708882Y-13167179D01*
X8708882Y-13167179D02*
X8718405Y-13205274D01*
X8718405Y-13205274D02*
X8718405Y-13252893D01*
X8718405Y-13252893D02*
X8708882Y-13290988D01*
X8708882Y-13290988D02*
X8699358Y-13310036D01*
X8699358Y-13310036D02*
X8689834Y-13319560D01*
X8689834Y-13319560D02*
X8670786Y-13329084D01*
X8670786Y-13329084D02*
X8651739Y-13329084D01*
X8651739Y-13329084D02*
X8632691Y-13319560D01*
X8632691Y-13319560D02*
X8623167Y-13310036D01*
X8623167Y-13310036D02*
X8613644Y-13290988D01*
X8613644Y-13290988D02*
X8604120Y-13252893D01*
X8604120Y-13252893D02*
X8604120Y-13205274D01*
X8604120Y-13205274D02*
X8613644Y-13167179D01*
X8613644Y-13167179D02*
X8623167Y-13148131D01*
X8623167Y-13148131D02*
X8632691Y-13138608D01*
X8632691Y-13138608D02*
X8651739Y-13129084D01*
X8804120Y-13329084D02*
X8804120Y-13195750D01*
X8804120Y-13214798D02*
X8813644Y-13205274D01*
X8813644Y-13205274D02*
X8832691Y-13195750D01*
X8832691Y-13195750D02*
X8861263Y-13195750D01*
X8861263Y-13195750D02*
X8880310Y-13205274D01*
X8880310Y-13205274D02*
X8889834Y-13224322D01*
X8889834Y-13224322D02*
X8889834Y-13329084D01*
X8889834Y-13224322D02*
X8899358Y-13205274D01*
X8899358Y-13205274D02*
X8918405Y-13195750D01*
X8918405Y-13195750D02*
X8946977Y-13195750D01*
X8946977Y-13195750D02*
X8966025Y-13205274D01*
X8966025Y-13205274D02*
X8975548Y-13224322D01*
X8975548Y-13224322D02*
X8975548Y-13329084D01*
X9070786Y-13329084D02*
X9070786Y-13195750D01*
X9070786Y-13214798D02*
X9080310Y-13205274D01*
X9080310Y-13205274D02*
X9099358Y-13195750D01*
X9099358Y-13195750D02*
X9127929Y-13195750D01*
X9127929Y-13195750D02*
X9146977Y-13205274D01*
X9146977Y-13205274D02*
X9156501Y-13224322D01*
X9156501Y-13224322D02*
X9156501Y-13329084D01*
X9156501Y-13224322D02*
X9166025Y-13205274D01*
X9166025Y-13205274D02*
X9185072Y-13195750D01*
X9185072Y-13195750D02*
X9213644Y-13195750D01*
X9213644Y-13195750D02*
X9232691Y-13205274D01*
X9232691Y-13205274D02*
X9242215Y-13224322D01*
X9242215Y-13224322D02*
X9242215Y-13329084D01*
X9632691Y-13119560D02*
X9461263Y-13376703D01*
X9889834Y-13129084D02*
X9908882Y-13129084D01*
X9908882Y-13129084D02*
X9927929Y-13138608D01*
X9927929Y-13138608D02*
X9937453Y-13148131D01*
X9937453Y-13148131D02*
X9946977Y-13167179D01*
X9946977Y-13167179D02*
X9956501Y-13205274D01*
X9956501Y-13205274D02*
X9956501Y-13252893D01*
X9956501Y-13252893D02*
X9946977Y-13290988D01*
X9946977Y-13290988D02*
X9937453Y-13310036D01*
X9937453Y-13310036D02*
X9927929Y-13319560D01*
X9927929Y-13319560D02*
X9908882Y-13329084D01*
X9908882Y-13329084D02*
X9889834Y-13329084D01*
X9889834Y-13329084D02*
X9870787Y-13319560D01*
X9870787Y-13319560D02*
X9861263Y-13310036D01*
X9861263Y-13310036D02*
X9851739Y-13290988D01*
X9851739Y-13290988D02*
X9842215Y-13252893D01*
X9842215Y-13252893D02*
X9842215Y-13205274D01*
X9842215Y-13205274D02*
X9851739Y-13167179D01*
X9851739Y-13167179D02*
X9861263Y-13148131D01*
X9861263Y-13148131D02*
X9870787Y-13138608D01*
X9870787Y-13138608D02*
X9889834Y-13129084D01*
X10042215Y-13310036D02*
X10051739Y-13319560D01*
X10051739Y-13319560D02*
X10042215Y-13329084D01*
X10042215Y-13329084D02*
X10032691Y-13319560D01*
X10032691Y-13319560D02*
X10042215Y-13310036D01*
X10042215Y-13310036D02*
X10042215Y-13329084D01*
X10175548Y-13129084D02*
X10194596Y-13129084D01*
X10194596Y-13129084D02*
X10213644Y-13138608D01*
X10213644Y-13138608D02*
X10223168Y-13148131D01*
X10223168Y-13148131D02*
X10232691Y-13167179D01*
X10232691Y-13167179D02*
X10242215Y-13205274D01*
X10242215Y-13205274D02*
X10242215Y-13252893D01*
X10242215Y-13252893D02*
X10232691Y-13290988D01*
X10232691Y-13290988D02*
X10223168Y-13310036D01*
X10223168Y-13310036D02*
X10213644Y-13319560D01*
X10213644Y-13319560D02*
X10194596Y-13329084D01*
X10194596Y-13329084D02*
X10175548Y-13329084D01*
X10175548Y-13329084D02*
X10156501Y-13319560D01*
X10156501Y-13319560D02*
X10146977Y-13310036D01*
X10146977Y-13310036D02*
X10137453Y-13290988D01*
X10137453Y-13290988D02*
X10127929Y-13252893D01*
X10127929Y-13252893D02*
X10127929Y-13205274D01*
X10127929Y-13205274D02*
X10137453Y-13167179D01*
X10137453Y-13167179D02*
X10146977Y-13148131D01*
X10146977Y-13148131D02*
X10156501Y-13138608D01*
X10156501Y-13138608D02*
X10175548Y-13129084D01*
X10308882Y-13129084D02*
X10442215Y-13129084D01*
X10442215Y-13129084D02*
X10356501Y-13329084D01*
X10546977Y-13214798D02*
X10527929Y-13205274D01*
X10527929Y-13205274D02*
X10518406Y-13195750D01*
X10518406Y-13195750D02*
X10508882Y-13176703D01*
X10508882Y-13176703D02*
X10508882Y-13167179D01*
X10508882Y-13167179D02*
X10518406Y-13148131D01*
X10518406Y-13148131D02*
X10527929Y-13138608D01*
X10527929Y-13138608D02*
X10546977Y-13129084D01*
X10546977Y-13129084D02*
X10585072Y-13129084D01*
X10585072Y-13129084D02*
X10604120Y-13138608D01*
X10604120Y-13138608D02*
X10613644Y-13148131D01*
X10613644Y-13148131D02*
X10623168Y-13167179D01*
X10623168Y-13167179D02*
X10623168Y-13176703D01*
X10623168Y-13176703D02*
X10613644Y-13195750D01*
X10613644Y-13195750D02*
X10604120Y-13205274D01*
X10604120Y-13205274D02*
X10585072Y-13214798D01*
X10585072Y-13214798D02*
X10546977Y-13214798D01*
X10546977Y-13214798D02*
X10527929Y-13224322D01*
X10527929Y-13224322D02*
X10518406Y-13233846D01*
X10518406Y-13233846D02*
X10508882Y-13252893D01*
X10508882Y-13252893D02*
X10508882Y-13290988D01*
X10508882Y-13290988D02*
X10518406Y-13310036D01*
X10518406Y-13310036D02*
X10527929Y-13319560D01*
X10527929Y-13319560D02*
X10546977Y-13329084D01*
X10546977Y-13329084D02*
X10585072Y-13329084D01*
X10585072Y-13329084D02*
X10604120Y-13319560D01*
X10604120Y-13319560D02*
X10613644Y-13310036D01*
X10613644Y-13310036D02*
X10623168Y-13290988D01*
X10623168Y-13290988D02*
X10623168Y-13252893D01*
X10623168Y-13252893D02*
X10613644Y-13233846D01*
X10613644Y-13233846D02*
X10604120Y-13224322D01*
X10604120Y-13224322D02*
X10585072Y-13214798D01*
X10689834Y-13129084D02*
X10823168Y-13129084D01*
X10823168Y-13129084D02*
X10737453Y-13329084D01*
X10889834Y-13129084D02*
X10889834Y-13167179D01*
X10966025Y-13129084D02*
X10966025Y-13167179D01*
X11261263Y-13405274D02*
X11251739Y-13395750D01*
X11251739Y-13395750D02*
X11232691Y-13367179D01*
X11232691Y-13367179D02*
X11223168Y-13348131D01*
X11223168Y-13348131D02*
X11213644Y-13319560D01*
X11213644Y-13319560D02*
X11204120Y-13271941D01*
X11204120Y-13271941D02*
X11204120Y-13233846D01*
X11204120Y-13233846D02*
X11213644Y-13186227D01*
X11213644Y-13186227D02*
X11223168Y-13157655D01*
X11223168Y-13157655D02*
X11232691Y-13138608D01*
X11232691Y-13138608D02*
X11251739Y-13110036D01*
X11251739Y-13110036D02*
X11261263Y-13100512D01*
X11423168Y-13195750D02*
X11423168Y-13329084D01*
X11375548Y-13119560D02*
X11327929Y-13262417D01*
X11327929Y-13262417D02*
X11451739Y-13262417D01*
X11680310Y-13329084D02*
X11680310Y-13129084D01*
X11766025Y-13329084D02*
X11766025Y-13224322D01*
X11766025Y-13224322D02*
X11756501Y-13205274D01*
X11756501Y-13205274D02*
X11737453Y-13195750D01*
X11737453Y-13195750D02*
X11708882Y-13195750D01*
X11708882Y-13195750D02*
X11689834Y-13205274D01*
X11689834Y-13205274D02*
X11680310Y-13214798D01*
X11889834Y-13329084D02*
X11870787Y-13319560D01*
X11870787Y-13319560D02*
X11861263Y-13310036D01*
X11861263Y-13310036D02*
X11851739Y-13290988D01*
X11851739Y-13290988D02*
X11851739Y-13233846D01*
X11851739Y-13233846D02*
X11861263Y-13214798D01*
X11861263Y-13214798D02*
X11870787Y-13205274D01*
X11870787Y-13205274D02*
X11889834Y-13195750D01*
X11889834Y-13195750D02*
X11918406Y-13195750D01*
X11918406Y-13195750D02*
X11937453Y-13205274D01*
X11937453Y-13205274D02*
X11946977Y-13214798D01*
X11946977Y-13214798D02*
X11956501Y-13233846D01*
X11956501Y-13233846D02*
X11956501Y-13290988D01*
X11956501Y-13290988D02*
X11946977Y-13310036D01*
X11946977Y-13310036D02*
X11937453Y-13319560D01*
X11937453Y-13319560D02*
X11918406Y-13329084D01*
X11918406Y-13329084D02*
X11889834Y-13329084D01*
X12070787Y-13329084D02*
X12051739Y-13319560D01*
X12051739Y-13319560D02*
X12042215Y-13300512D01*
X12042215Y-13300512D02*
X12042215Y-13129084D01*
X12223168Y-13319560D02*
X12204120Y-13329084D01*
X12204120Y-13329084D02*
X12166025Y-13329084D01*
X12166025Y-13329084D02*
X12146977Y-13319560D01*
X12146977Y-13319560D02*
X12137453Y-13300512D01*
X12137453Y-13300512D02*
X12137453Y-13224322D01*
X12137453Y-13224322D02*
X12146977Y-13205274D01*
X12146977Y-13205274D02*
X12166025Y-13195750D01*
X12166025Y-13195750D02*
X12204120Y-13195750D01*
X12204120Y-13195750D02*
X12223168Y-13205274D01*
X12223168Y-13205274D02*
X12232691Y-13224322D01*
X12232691Y-13224322D02*
X12232691Y-13243369D01*
X12232691Y-13243369D02*
X12137453Y-13262417D01*
X12308882Y-13319560D02*
X12327930Y-13329084D01*
X12327930Y-13329084D02*
X12366025Y-13329084D01*
X12366025Y-13329084D02*
X12385072Y-13319560D01*
X12385072Y-13319560D02*
X12394596Y-13300512D01*
X12394596Y-13300512D02*
X12394596Y-13290988D01*
X12394596Y-13290988D02*
X12385072Y-13271941D01*
X12385072Y-13271941D02*
X12366025Y-13262417D01*
X12366025Y-13262417D02*
X12337453Y-13262417D01*
X12337453Y-13262417D02*
X12318406Y-13252893D01*
X12318406Y-13252893D02*
X12308882Y-13233846D01*
X12308882Y-13233846D02*
X12308882Y-13224322D01*
X12308882Y-13224322D02*
X12318406Y-13205274D01*
X12318406Y-13205274D02*
X12337453Y-13195750D01*
X12337453Y-13195750D02*
X12366025Y-13195750D01*
X12366025Y-13195750D02*
X12385072Y-13205274D01*
X12461263Y-13405274D02*
X12470787Y-13395750D01*
X12470787Y-13395750D02*
X12489834Y-13367179D01*
X12489834Y-13367179D02*
X12499358Y-13348131D01*
X12499358Y-13348131D02*
X12508882Y-13319560D01*
X12508882Y-13319560D02*
X12518406Y-13271941D01*
X12518406Y-13271941D02*
X12518406Y-13233846D01*
X12518406Y-13233846D02*
X12508882Y-13186227D01*
X12508882Y-13186227D02*
X12499358Y-13157655D01*
X12499358Y-13157655D02*
X12489834Y-13138608D01*
X12489834Y-13138608D02*
X12470787Y-13110036D01*
X12470787Y-13110036D02*
X12461263Y-13100512D01*
X12823168Y-13405274D02*
X12813644Y-13395750D01*
X12813644Y-13395750D02*
X12794596Y-13367179D01*
X12794596Y-13367179D02*
X12785072Y-13348131D01*
X12785072Y-13348131D02*
X12775549Y-13319560D01*
X12775549Y-13319560D02*
X12766025Y-13271941D01*
X12766025Y-13271941D02*
X12766025Y-13233846D01*
X12766025Y-13233846D02*
X12775549Y-13186227D01*
X12775549Y-13186227D02*
X12785072Y-13157655D01*
X12785072Y-13157655D02*
X12794596Y-13138608D01*
X12794596Y-13138608D02*
X12813644Y-13110036D01*
X12813644Y-13110036D02*
X12823168Y-13100512D01*
X12899358Y-13195750D02*
X12899358Y-13329084D01*
X12899358Y-13214798D02*
X12908882Y-13205274D01*
X12908882Y-13205274D02*
X12927930Y-13195750D01*
X12927930Y-13195750D02*
X12956501Y-13195750D01*
X12956501Y-13195750D02*
X12975549Y-13205274D01*
X12975549Y-13205274D02*
X12985072Y-13224322D01*
X12985072Y-13224322D02*
X12985072Y-13329084D01*
X13108882Y-13329084D02*
X13089834Y-13319560D01*
X13089834Y-13319560D02*
X13080311Y-13310036D01*
X13080311Y-13310036D02*
X13070787Y-13290988D01*
X13070787Y-13290988D02*
X13070787Y-13233846D01*
X13070787Y-13233846D02*
X13080311Y-13214798D01*
X13080311Y-13214798D02*
X13089834Y-13205274D01*
X13089834Y-13205274D02*
X13108882Y-13195750D01*
X13108882Y-13195750D02*
X13137453Y-13195750D01*
X13137453Y-13195750D02*
X13156501Y-13205274D01*
X13156501Y-13205274D02*
X13166025Y-13214798D01*
X13166025Y-13214798D02*
X13175549Y-13233846D01*
X13175549Y-13233846D02*
X13175549Y-13290988D01*
X13175549Y-13290988D02*
X13166025Y-13310036D01*
X13166025Y-13310036D02*
X13156501Y-13319560D01*
X13156501Y-13319560D02*
X13137453Y-13329084D01*
X13137453Y-13329084D02*
X13108882Y-13329084D01*
X13232692Y-13195750D02*
X13308882Y-13195750D01*
X13261263Y-13129084D02*
X13261263Y-13300512D01*
X13261263Y-13300512D02*
X13270787Y-13319560D01*
X13270787Y-13319560D02*
X13289834Y-13329084D01*
X13289834Y-13329084D02*
X13308882Y-13329084D01*
X13527930Y-13195750D02*
X13527930Y-13395750D01*
X13527930Y-13205274D02*
X13546977Y-13195750D01*
X13546977Y-13195750D02*
X13585073Y-13195750D01*
X13585073Y-13195750D02*
X13604120Y-13205274D01*
X13604120Y-13205274D02*
X13613644Y-13214798D01*
X13613644Y-13214798D02*
X13623168Y-13233846D01*
X13623168Y-13233846D02*
X13623168Y-13290988D01*
X13623168Y-13290988D02*
X13613644Y-13310036D01*
X13613644Y-13310036D02*
X13604120Y-13319560D01*
X13604120Y-13319560D02*
X13585073Y-13329084D01*
X13585073Y-13329084D02*
X13546977Y-13329084D01*
X13546977Y-13329084D02*
X13527930Y-13319560D01*
X13737453Y-13329084D02*
X13718406Y-13319560D01*
X13718406Y-13319560D02*
X13708882Y-13300512D01*
X13708882Y-13300512D02*
X13708882Y-13129084D01*
X13899358Y-13329084D02*
X13899358Y-13224322D01*
X13899358Y-13224322D02*
X13889834Y-13205274D01*
X13889834Y-13205274D02*
X13870787Y-13195750D01*
X13870787Y-13195750D02*
X13832692Y-13195750D01*
X13832692Y-13195750D02*
X13813644Y-13205274D01*
X13899358Y-13319560D02*
X13880311Y-13329084D01*
X13880311Y-13329084D02*
X13832692Y-13329084D01*
X13832692Y-13329084D02*
X13813644Y-13319560D01*
X13813644Y-13319560D02*
X13804120Y-13300512D01*
X13804120Y-13300512D02*
X13804120Y-13281465D01*
X13804120Y-13281465D02*
X13813644Y-13262417D01*
X13813644Y-13262417D02*
X13832692Y-13252893D01*
X13832692Y-13252893D02*
X13880311Y-13252893D01*
X13880311Y-13252893D02*
X13899358Y-13243369D01*
X13966025Y-13195750D02*
X14042215Y-13195750D01*
X13994596Y-13129084D02*
X13994596Y-13300512D01*
X13994596Y-13300512D02*
X14004120Y-13319560D01*
X14004120Y-13319560D02*
X14023168Y-13329084D01*
X14023168Y-13329084D02*
X14042215Y-13329084D01*
X14185073Y-13319560D02*
X14166025Y-13329084D01*
X14166025Y-13329084D02*
X14127930Y-13329084D01*
X14127930Y-13329084D02*
X14108882Y-13319560D01*
X14108882Y-13319560D02*
X14099358Y-13300512D01*
X14099358Y-13300512D02*
X14099358Y-13224322D01*
X14099358Y-13224322D02*
X14108882Y-13205274D01*
X14108882Y-13205274D02*
X14127930Y-13195750D01*
X14127930Y-13195750D02*
X14166025Y-13195750D01*
X14166025Y-13195750D02*
X14185073Y-13205274D01*
X14185073Y-13205274D02*
X14194596Y-13224322D01*
X14194596Y-13224322D02*
X14194596Y-13243369D01*
X14194596Y-13243369D02*
X14099358Y-13262417D01*
X14366025Y-13329084D02*
X14366025Y-13129084D01*
X14366025Y-13319560D02*
X14346977Y-13329084D01*
X14346977Y-13329084D02*
X14308882Y-13329084D01*
X14308882Y-13329084D02*
X14289834Y-13319560D01*
X14289834Y-13319560D02*
X14280311Y-13310036D01*
X14280311Y-13310036D02*
X14270787Y-13290988D01*
X14270787Y-13290988D02*
X14270787Y-13233846D01*
X14270787Y-13233846D02*
X14280311Y-13214798D01*
X14280311Y-13214798D02*
X14289834Y-13205274D01*
X14289834Y-13205274D02*
X14308882Y-13195750D01*
X14308882Y-13195750D02*
X14346977Y-13195750D01*
X14346977Y-13195750D02*
X14366025Y-13205274D01*
X14442215Y-13405274D02*
X14451739Y-13395750D01*
X14451739Y-13395750D02*
X14470787Y-13367179D01*
X14470787Y-13367179D02*
X14480311Y-13348131D01*
X14480311Y-13348131D02*
X14489834Y-13319560D01*
X14489834Y-13319560D02*
X14499358Y-13271941D01*
X14499358Y-13271941D02*
X14499358Y-13233846D01*
X14499358Y-13233846D02*
X14489834Y-13186227D01*
X14489834Y-13186227D02*
X14480311Y-13157655D01*
X14480311Y-13157655D02*
X14470787Y-13138608D01*
X14470787Y-13138608D02*
X14451739Y-13110036D01*
X14451739Y-13110036D02*
X14442215Y-13100512D01*
M02*
