M48
; DRILL file {KiCad 8.0.3} date 2024-08-21T11:04:34-0600
; FORMAT={-:-/ absolute / metric / decimal}
; #@! TF.CreationDate,2024-08-21T11:04:34-06:00
; #@! TF.GenerationSoftware,Kicad,Pcbnew,8.0.3
; #@! TF.FileFunction,MixedPlating,1,2
FMAT,2
METRIC
; #@! TA.AperFunction,Plated,PTH,ComponentDrill
T1C0.900
; #@! TA.AperFunction,Plated,PTH,ComponentDrill
T2C1.000
; #@! TA.AperFunction,Plated,PTH,ComponentDrill
T3C1.020
; #@! TA.AperFunction,Plated,PTH,ComponentDrill
T4C1.200
; #@! TA.AperFunction,NonPlated,NPTH,ComponentDrill
T5C2.000
%
G90
G05
T1
X104.394Y-77.47
X104.394Y-80.01
X109.474Y-77.47
X109.474Y-80.01
X114.554Y-77.47
X114.554Y-80.01
X119.634Y-77.47
X119.634Y-80.01
T2
X88.03Y-73.38
X90.03Y-73.38
X92.03Y-73.38
X98.78Y-62.63
X98.78Y-64.63
X98.78Y-66.63
X155.663Y-73.449
X157.663Y-73.449
X159.663Y-73.449
X166.413Y-62.699
X166.413Y-64.699
X166.413Y-66.699
T3
X99.513Y-88.644
X99.516Y-111.504
X102.053Y-88.644
X102.056Y-111.504
X104.593Y-88.644
X104.596Y-111.504
X107.133Y-88.644
X107.136Y-111.504
X109.673Y-88.644
X109.676Y-111.504
X112.213Y-88.644
X112.216Y-111.504
X114.753Y-88.644
X114.756Y-111.504
X117.293Y-88.644
X117.296Y-111.504
X119.833Y-88.644
X119.836Y-111.504
X122.373Y-88.644
X122.376Y-111.504
X124.913Y-88.644
X124.916Y-111.504
X127.453Y-88.644
X127.456Y-111.504
X129.993Y-88.644
X129.996Y-111.504
X132.533Y-88.644
X132.536Y-111.504
X135.073Y-88.644
X135.076Y-111.504
X137.613Y-88.644
X137.616Y-111.504
X140.153Y-88.644
X140.156Y-111.504
X142.693Y-88.644
X142.696Y-111.504
X145.233Y-88.644
X145.236Y-111.504
T4
X143.793Y-77.356
X143.793Y-82.356
T5
X111.506Y-57.658
X111.506Y-66.658
X134.874Y-57.658
X134.874Y-66.658
M30
